<svg xmlns="http://www.w3.org/2000/svg" xmlns:xlink="http://www.w3.org/1999/xlink" xmlns:lucid="lucid" width="2960" height="1800"><g transform="translate(-31.727192205491576 -159.72719220549158)" lucid:page-tab-id="0_0"><path d="M531.73 1399.73h1800v40h-1800z" stroke="#000" stroke-opacity="0" stroke-width="2" fill="#ccc"/><path d="M1471.73 1389.73c0-5.53 4.47-10 10-10h300c5.52 0 10 4.47 10 10v60c0 5.52-4.48 10-10 10h-300c-5.53 0-10-4.48-10-10z" stroke="#000" stroke-opacity="0" stroke-width="2" fill="#ccc"/><use xlink:href="#a" transform="matrix(1,0,0,1,1476.7271922054917,1384.7271922054915) translate(68.55555555555554 41.020833333333336)"/><use xlink:href="#b" transform="matrix(1,0,0,1,1476.7271922054917,1384.7271922054915) translate(188.77777777777777 41.020833333333336)"/><path d="M471.73 1359.73h660v120h-660z" stroke="#000" stroke-opacity="0" stroke-width="2" fill="#ccc"/><a xlink:href="http://google.com" target="_blank"><path d="M1519.73 189.73c0-5.53 4.47-10 10-10h380c5.52 0 10 4.47 10 10v60c0 5.52-4.48 10-10 10h-380c-5.53 0-10-4.48-10-10z" stroke="#000" stroke-opacity="0" stroke-width="2" fill="#c92d39"/><use xlink:href="#c" transform="matrix(1,0,0,1,1524.7271922054917,184.72719220549158) translate(152.11111111111111 41.020833333333336)"/><path class="lucid-link lucid-hotspot lucid-overlay-hotspot" d="M1519.73 189.73c0-5.53 4.47-10 10-10h380c5.52 0 10 4.47 10 10v60c0 5.52-4.48 10-10 10h-380c-5.53 0-10-4.48-10-10z" fill="none"/></a><path d="M1111.73 429.73c0-5.53 4.47-10 10-10h300c5.52 0 10 4.47 10 10v60c0 5.52-4.48 10-10 10h-300c-5.53 0-10-4.48-10-10z" stroke="#000" stroke-opacity="0" stroke-width="2" fill="#de5f85"/><use xlink:href="#d" transform="matrix(1,0,0,1,1116.7271922054915,424.7271922054915) translate(63.37037037037038 41.020833333333336)"/><use xlink:href="#e" transform="matrix(1,0,0,1,1116.7271922054915,424.7271922054915) translate(190.4074074074074 41.020833333333336)"/><path d="M2611.73 429.73c0-5.53 4.47-10 10-10h300c5.52 0 10 4.47 10 10v60c0 5.52-4.48 10-10 10h-300c-5.53 0-10-4.48-10-10z" stroke="#000" stroke-opacity="0" stroke-width="2" fill="#19967d"/><use xlink:href="#f" transform="matrix(1,0,0,1,2616.7271922054915,424.7271922054915) translate(55.925925925925924 41.302083333333336)"/><use xlink:href="#e" transform="matrix(1,0,0,1,2616.7271922054915,424.7271922054915) translate(197.85185185185185 41.302083333333336)"/><path d="M2611.73 669.73c0-5.53 4.47-10 10-10h300c5.52 0 10 4.47 10 10v60c0 5.52-4.48 10-10 10h-300c-5.53 0-10-4.48-10-10z" stroke="#000" stroke-opacity="0" stroke-width="2" fill="#19967d"/><use xlink:href="#g" transform="matrix(1,0,0,1,2616.7271922054915,664.7271922054916) translate(38.85185185185182 41.302083333333336)"/><use xlink:href="#h" transform="matrix(1,0,0,1,2616.7271922054915,664.7271922054916) translate(194.25925925925927 41.302083333333336)"/><path d="M1719.73 260.23v79.5h-448v63.6" stroke="#000" fill="none"/><path d="M1720.23 260.24h-1v-.5h1zM1271.73 418.1l-4.64-14.26h9.26z"/><path d="M1271.73 419.73l-5.33-16.4h10.65zm-3.95-15.4l3.95 12.16 3.94-12.16z"/><path d="M1719.73 260.23v79.5h1052v63.6" stroke="#000" fill="none"/><path d="M1720.23 260.24h-1v-.5h1zM2771.73 418.1l-4.64-14.26h9.26z"/><path d="M2771.73 419.73l-5.33-16.4h10.65zm-3.95-15.4l3.95 12.16 3.94-12.16z"/><path d="M2611.73 909.73c0-5.53 4.47-10 10-10h300c5.52 0 10 4.47 10 10v60c0 5.52-4.48 10-10 10h-300c-5.53 0-10-4.48-10-10z" stroke="#000" stroke-opacity="0" stroke-width="2" fill="#7ab648"/><use xlink:href="#i" transform="matrix(1,0,0,1,2616.7271922054915,904.7271922054916) translate(17.259259259259238 41.302083333333336)"/><use xlink:href="#j" transform="matrix(1,0,0,1,2616.7271922054915,904.7271922054916) translate(86.81481481481481 41.302083333333336)"/><use xlink:href="#k" transform="matrix(1,0,0,1,2616.7271922054915,904.7271922054916) translate(123.85185185185185 41.302083333333336)"/><path d="M2571.73 1869.73c0-5.53 4.47-10 10-10h180c5.52 0 10 4.47 10 10v60c0 5.52-4.48 10-10 10h-180c-5.53 0-10-4.48-10-10z" stroke="#000" stroke-opacity="0" stroke-width="2" fill="#7ab648"/><use xlink:href="#l" transform="matrix(1,0,0,1,2576.7271922054915,1864.7271922054915) translate(36.222222222222214 21.333333333333336)"/><use xlink:href="#m" transform="matrix(1,0,0,1,2576.7271922054915,1864.7271922054915) translate(1.8518518518518476 53.333333333333336)"/><use xlink:href="#n" transform="matrix(1,0,0,1,2576.7271922054915,1864.7271922054915) translate(139.33333333333334 53.333333333333336)"/><path d="M2791.73 1869.73c0-5.53 4.47-10 10-10h160c5.52 0 10 4.47 10 10v60c0 5.52-4.48 10-10 10h-160c-5.53 0-10-4.48-10-10z" stroke="#000" stroke-opacity="0" stroke-width="2" fill="#7ab648"/><use xlink:href="#o" transform="matrix(1,0,0,1,2796.7271922054915,1864.7271922054915) translate(1.8518518518518476 21.333333333333336)"/><use xlink:href="#p" transform="matrix(1,0,0,1,2796.7271922054915,1864.7271922054915) translate(101.48148148148148 21.333333333333336)"/><use xlink:href="#n" transform="matrix(1,0,0,1,2796.7271922054915,1864.7271922054915) translate(60.59259259259259 53.333333333333336)"/><path d="M2771.73 980.23v439.5h-100v423.6" stroke="#000" fill="none"/><path d="M2772.23 980.24h-1v-.5h1zM2671.73 1858.1l-4.64-14.26h9.26z"/><path d="M2671.73 1859.73l-5.33-16.4h10.65zm-3.95-15.4l3.95 12.16 3.94-12.16z"/><path d="M2771.73 980.23v439.5h110v423.6" stroke="#000" fill="none"/><path d="M2772.23 980.24h-1v-.5h1zM2881.73 1858.1l-4.64-14.26h9.26z"/><path d="M2881.73 1859.73l-5.33-16.4h10.65zm-3.95-15.4l3.95 12.16 3.94-12.16z"/><path d="M2771.73 500.23v143.1" stroke="#000" fill="none"/><path d="M2772.23 500.24h-1v-.5h1zM2771.73 658.1l-4.64-14.26h9.26z"/><path d="M2771.73 659.73l-5.33-16.4h10.65zm-3.95-15.4l3.95 12.16 3.94-12.16z"/><path d="M2771.73 740.23v143.1" stroke="#000" fill="none"/><path d="M2772.23 740.24h-1v-.5h1zM2771.73 898.1l-4.64-14.26h9.26z"/><path d="M2771.73 899.73l-5.33-16.4h10.65zm-3.95-15.4l3.95 12.16 3.94-12.16z"/><path d="M551.73 669.73c0-5.53 4.47-10 10-10h300c5.52 0 10 4.47 10 10v60c0 5.52-4.48 10-10 10h-300c-5.53 0-10-4.48-10-10z" stroke="#000" stroke-opacity="0" stroke-width="2" fill="#7ab648"/><use xlink:href="#q" transform="matrix(1,0,0,1,556.7271922054916,664.7271922054916) translate(63.999999999999986 41.020833333333336)"/><use xlink:href="#r" transform="matrix(1,0,0,1,556.7271922054916,664.7271922054916) translate(86.22222222222221 41.020833333333336)"/><use xlink:href="#s" transform="matrix(1,0,0,1,556.7271922054916,664.7271922054916) translate(183.85185185185185 41.020833333333336)"/><path d="M371.73 909.73c0-5.53 4.47-10 10-10h300c5.52 0 10 4.47 10 10v60c0 5.52-4.48 10-10 10h-300c-5.53 0-10-4.48-10-10z" stroke="#000" stroke-opacity="0" stroke-width="2" fill="#7ab648"/><use xlink:href="#q" transform="matrix(1,0,0,1,376.72719220549163,904.7271922054916) translate(26.148148148148124 41.020833333333336)"/><use xlink:href="#t" transform="matrix(1,0,0,1,376.72719220549163,904.7271922054916) translate(48.37037037037035 41.020833333333336)"/><use xlink:href="#u" transform="matrix(1,0,0,1,376.72719220549163,904.7271922054916) translate(203.92592592592592 41.020833333333336)"/><path d="M1111.73 909.73c0-5.53 4.47-10 10-10h240c5.52 0 10 4.47 10 10v60c0 5.52-4.48 10-10 10h-240c-5.53 0-10-4.48-10-10z" stroke="#000" stroke-opacity="0" stroke-width="2" fill="#7ab648"/><use xlink:href="#q" transform="matrix(1,0,0,1,1116.7271922054915,904.7271922054916) translate(5.074074074074048 41.020833333333336)"/><use xlink:href="#v" transform="matrix(1,0,0,1,1116.7271922054915,904.7271922054916) translate(27.296296296296273 41.020833333333336)"/><use xlink:href="#u" transform="matrix(1,0,0,1,1116.7271922054915,904.7271922054916) translate(165 41.020833333333336)"/><path d="M1151.73 1869.73c0-5.53 4.47-10 10-10h160c5.52 0 10 4.47 10 10v60c0 5.52-4.48 10-10 10h-160c-5.53 0-10-4.48-10-10z" stroke="#000" stroke-opacity="0" stroke-width="2" fill="#ba8500"/><use xlink:href="#w" transform="matrix(1,0,0,1,1156.7271922054915,1864.7271922054915) translate(-0.7407407407407476 24.333333333333336)"/><use xlink:href="#x" transform="matrix(1,0,0,1,1156.7271922054915,1864.7271922054915) translate(51.74074074074073 56.333333333333336)"/><path d="M651.73 1149.73c0-5.53 4.47-10 10-10h300c5.52 0 10 4.47 10 10v60c0 5.52-4.48 10-10 10h-300c-5.53 0-10-4.48-10-10z" stroke="#000" stroke-opacity="0" stroke-width="2" fill="#19967d"/><use xlink:href="#y" transform="matrix(1,0,0,1,656.7271922054916,1144.7271922054915) translate(39.59259259259258 41.020833333333336)"/><use xlink:href="#z" transform="matrix(1,0,0,1,656.7271922054916,1144.7271922054915) translate(157.96296296296293 41.020833333333336)"/><use xlink:href="#A" transform="matrix(1,0,0,1,656.7271922054916,1144.7271922054915) translate(236.33333333333334 41.020833333333336)"/><path d="M51.73 1149.73c0-5.53 4.47-10 10-10h300c5.52 0 10 4.47 10 10v60c0 5.52-4.48 10-10 10h-300c-5.53 0-10-4.48-10-10z" stroke="#000" stroke-opacity="0" stroke-width="2" fill="#19967d"/><use xlink:href="#B" transform="matrix(1,0,0,1,56.727192205491576,1144.7271922054915) translate(54.37037037037035 41.020833333333336)"/><use xlink:href="#z" transform="matrix(1,0,0,1,56.727192205491576,1144.7271922054915) translate(143.18518518518516 41.020833333333336)"/><use xlink:href="#A" transform="matrix(1,0,0,1,56.727192205491576,1144.7271922054915) translate(221.55555555555557 41.020833333333336)"/><path d="M51.73 1389.73c0-5.53 4.47-10 10-10h300c5.52 0 10 4.47 10 10v60c0 5.52-4.48 10-10 10h-300c-5.53 0-10-4.48-10-10z" stroke="#000" stroke-opacity="0" stroke-width="2" fill="#19967d"/><use xlink:href="#C" transform="matrix(1,0,0,1,56.72719220549159,1384.7271922054915) translate(26.129629629629648 41.020833333333336)"/><use xlink:href="#D" transform="matrix(1,0,0,1,56.72719220549159,1384.7271922054915) translate(145.75925925925924 41.020833333333336)"/><path d="M151.73 1869.73c0-5.53 4.47-10 10-10h100c5.52 0 10 4.47 10 10v60c0 5.52-4.48 10-10 10h-100c-5.53 0-10-4.48-10-10z" stroke="#000" stroke-opacity="0" stroke-width="2" fill="#ba8500"/><use xlink:href="#E" transform="matrix(1,0,0,1,156.72719220549158,1864.7271922054915) translate(20.999999999999993 41.020833333333336)"/><path d="M1271.73 500.23v79.5h-560v63.6" stroke="#000" fill="none"/><path d="M1272.23 500.24h-1v-.5h1zM711.73 658.1l-4.64-14.26h9.26z"/><path d="M711.73 659.73l-5.33-16.4h10.65zm-3.95-15.4l3.95 12.16 3.94-12.16z"/><path d="M711.73 740.23v79.5h-180v63.6" stroke="#000" fill="none"/><path d="M712.23 740.24h-1v-.5h1zM531.73 898.1l-4.64-14.26h9.26z"/><path d="M531.73 899.73l-5.33-16.4h10.65zm-3.95-15.4l3.95 12.16 3.94-12.16z"/><path d="M711.73 740.23v79.5h530v63.6" stroke="#000" fill="none"/><path d="M712.23 740.24h-1v-.5h1zM1241.73 898.1l-4.64-14.26h9.26z"/><path d="M1241.73 899.73l-5.33-16.4h10.65zm-3.95-15.4l3.95 12.16 3.94-12.16z"/><path d="M1241.73 980.23v863.1" stroke="#000" fill="none"/><path d="M1242.23 980.24h-1v-.5h1zM1241.73 1858.1l-4.64-14.26h9.26z"/><path d="M1241.73 1859.73l-5.33-16.4h10.65zm-3.95-15.4l3.95 12.16 3.94-12.16z"/><path d="M531.73 980.23v79.5h280v63.6" stroke="#000" fill="none"/><path d="M532.23 980.24h-1v-.5h1zM811.73 1138.1l-4.64-14.26h9.26z"/><path d="M811.73 1139.73l-5.33-16.4h10.65zm-3.95-15.4l3.95 12.16 3.94-12.16z"/><path d="M531.73 980.23v79.5h-320v63.6" stroke="#000" fill="none"/><path d="M532.23 980.24h-1v-.5h1zM211.73 1138.1l-4.64-14.26h9.26z"/><path d="M211.73 1139.73l-5.33-16.4h10.65zm-3.95-15.4l3.95 12.16 3.94-12.16z"/><path d="M211.73 1220.23v143.1" stroke="#000" fill="none"/><path d="M212.23 1220.24h-1v-.5h1zM211.73 1378.1l-4.64-14.26h9.26z"/><path d="M211.73 1379.73l-5.33-16.4h10.65zm-3.95-15.4l3.95 12.16 3.94-12.16z"/><path d="M211.73 1460.23v383.1" stroke="#000" fill="none"/><path d="M212.23 1460.24h-1v-.5h1zM211.73 1858.1l-4.64-14.26h9.26z"/><path d="M211.73 1859.73l-5.33-16.4h10.65zm-3.95-15.4l3.95 12.16 3.94-12.16z"/><path d="M491.73 1389.73c0-5.53 4.47-10 10-10h260c5.52 0 10 4.47 10 10v60c0 5.52-4.48 10-10 10h-260c-5.53 0-10-4.48-10-10z" stroke="#000" stroke-opacity="0" stroke-width="2" fill="#062274"/><use xlink:href="#C" transform="matrix(1,0,0,1,496.72719220549163,1384.7271922054915) translate(5.6296296296296475 41.020833333333336)"/><use xlink:href="#D" transform="matrix(1,0,0,1,496.72719220549163,1384.7271922054915) translate(125.25925925925925 41.020833333333336)"/><path d="M791.73 1389.73c0-5.53 4.47-10 10-10h300c5.52 0 10 4.47 10 10v60c0 5.52-4.48 10-10 10h-300c-5.53 0-10-4.48-10-10z" stroke="#000" stroke-opacity="0" stroke-width="2" fill="#062274"/><use xlink:href="#F" transform="matrix(1,0,0,1,796.7271922054916,1384.7271922054915) translate(4.2222222222222285 41.020833333333336)"/><use xlink:href="#G" transform="matrix(1,0,0,1,796.7271922054916,1384.7271922054915) translate(47.03703703703705 41.020833333333336)"/><use xlink:href="#D" transform="matrix(1,0,0,1,796.7271922054916,1384.7271922054915) translate(166.66666666666666 41.020833333333336)"/><path d="M811.73 1220.23v79.5h-180v63.6" stroke="#000" fill="none"/><path d="M812.23 1220.24h-1v-.5h1zM631.73 1378.1l-4.64-14.26h9.26z"/><path d="M631.73 1379.73l-5.33-16.4h10.65zm-3.95-15.4l3.95 12.16 3.94-12.16z"/><path d="M811.73 1220.23v79.5h140v63.6" stroke="#000" fill="none"/><path d="M812.23 1220.24h-1v-.5h1zM951.73 1378.1l-4.64-14.26h9.26z"/><path d="M951.73 1379.73l-5.33-16.4h10.65zm-3.95-15.4l3.95 12.16 3.94-12.16z"/><path d="M271.73 1599.73h620v120h-620z" stroke="#000" stroke-opacity="0" stroke-width="2" fill="#ccc"/><path d="M291.73 1629.73c0-5.53 4.47-10 10-10h240c5.52 0 10 4.47 10 10v60c0 5.52-4.48 10-10 10h-240c-5.53 0-10-4.48-10-10z" stroke="#000" stroke-opacity="0" stroke-width="2" fill="#48127b"/><use xlink:href="#H" transform="matrix(1,0,0,1,296.7271922054916,1624.7271922054915) translate(34.22222222222223 21.333333333333336)"/><use xlink:href="#I" transform="matrix(1,0,0,1,296.7271922054916,1624.7271922054915) translate(112.74074074074075 21.333333333333336)"/><use xlink:href="#D" transform="matrix(1,0,0,1,296.7271922054916,1624.7271922054915) translate(55.44444444444444 53.333333333333336)"/><path d="M611.73 1629.73c0-5.53 4.47-10 10-10h240c5.52 0 10 4.47 10 10v60c0 5.52-4.48 10-10 10h-240c-5.53 0-10-4.48-10-10z" stroke="#000" stroke-opacity="0" stroke-width="2" fill="#48127b"/><use xlink:href="#J" transform="matrix(1,0,0,1,616.7271922054916,1624.7271922054915) translate(15.148148148148152 21.333333333333336)"/><use xlink:href="#K" transform="matrix(1,0,0,1,616.7271922054916,1624.7271922054915) translate(131.81481481481484 21.333333333333336)"/><use xlink:href="#D" transform="matrix(1,0,0,1,616.7271922054916,1624.7271922054915) translate(55.44444444444444 53.333333333333336)"/><path d="M291.73 1869.73c0-5.53 4.47-10 10-10h240c5.52 0 10 4.47 10 10v60c0 5.52-4.48 10-10 10h-240c-5.53 0-10-4.48-10-10z" stroke="#000" stroke-opacity="0" stroke-width="2" fill="#ef8d22"/><use xlink:href="#L" transform="matrix(1,0,0,1,296.7271922054916,1864.7271922054915) translate(28.851851851851862 21.333333333333336)"/><use xlink:href="#M" transform="matrix(1,0,0,1,296.7271922054916,1864.7271922054915) translate(53.296296296296305 53.333333333333336)"/><path d="M611.73 1869.73c0-5.53 4.47-10 10-10h240c5.52 0 10 4.47 10 10v60c0 5.52-4.48 10-10 10h-240c-5.53 0-10-4.48-10-10z" stroke="#000" stroke-opacity="0" stroke-width="2" fill="#ef8d22"/><use xlink:href="#N" transform="matrix(1,0,0,1,616.7271922054916,1864.7271922054915) translate(13.333333333333343 21.333333333333336)"/><use xlink:href="#O" transform="matrix(1,0,0,1,616.7271922054916,1864.7271922054915) translate(4.074074074074076 53.333333333333336)"/><use xlink:href="#P" transform="matrix(1,0,0,1,616.7271922054916,1864.7271922054915) translate(154.88888888888889 53.333333333333336)"/><path d="M631.73 1460.23v79.5h-210v63.6" stroke="#000" fill="none"/><path d="M632.23 1460.24h-1v-.5h1zM421.73 1618.1l-4.64-14.26h9.26z"/><path d="M421.73 1619.73l-5.33-16.4h10.65zm-3.95-15.4l3.95 12.16 3.94-12.16z"/><path d="M631.73 1460.23v79.5h110v63.6" stroke="#000" fill="none"/><path d="M632.23 1460.24h-1v-.5h1zM741.73 1618.1l-4.64-14.26h9.26z"/><path d="M741.73 1619.73l-5.33-16.4h10.65zm-3.95-15.4l3.95 12.16 3.94-12.16z"/><path d="M421.73 1700.23v143.1" stroke="#000" fill="none"/><path d="M422.23 1700.24h-1v-.5h1zM421.73 1858.1l-4.64-14.26h9.26z"/><path d="M421.73 1859.73l-5.33-16.4h10.65zm-3.95-15.4l3.95 12.16 3.94-12.16z"/><path d="M741.73 1700.23v143.1" stroke="#000" fill="none"/><path d="M742.23 1700.24h-1v-.5h1zM741.73 1858.1l-4.64-14.26h9.26z"/><path d="M741.73 1859.73l-5.33-16.4h10.65zm-3.95-15.4l3.95 12.16 3.94-12.16z"/><path d="M481.73 1709.73c0-5.53 4.47-10 10-10h180c5.52 0 10 4.47 10 10v60c0 5.52-4.48 10-10 10h-180c-5.53 0-10-4.48-10-10z" stroke="#000" stroke-opacity="0" stroke-width="2" fill="#ccc"/><use xlink:href="#Q" transform="matrix(1,0,0,1,486.72719220549163,1704.7271922054915) translate(8.555555555555543 41.020833333333336)"/><use xlink:href="#R" transform="matrix(1,0,0,1,486.72719220549163,1704.7271922054915) translate(128.77777777777777 41.020833333333336)"/><path d="M911.73 1629.73c0-5.53 4.47-10 10-10h180c5.52 0 10 4.47 10 10v60c0 5.52-4.48 10-10 10h-180c-5.53 0-10-4.48-10-10z" stroke="#000" stroke-opacity="0" stroke-width="2" fill="#834187"/><use xlink:href="#S" transform="matrix(1,0,0,1,916.7271922054916,1624.7271922054915) translate(3.3703703703703667 21.333333333333336)"/><use xlink:href="#s" transform="matrix(1,0,0,1,916.7271922054916,1624.7271922054915) translate(63.925925925925924 53.333333333333336)"/><path d="M891.73 1869.73c0-5.53 4.47-10 10-10h220c5.52 0 10 4.47 10 10v60c0 5.52-4.48 10-10 10h-220c-5.53 0-10-4.48-10-10z" stroke="#000" stroke-opacity="0" stroke-width="2" fill="#ef8d22"/><use xlink:href="#T" transform="matrix(1,0,0,1,896.7271922054916,1864.7271922054915) translate(15.92592592592591 21.333333333333336)"/><use xlink:href="#U" transform="matrix(1,0,0,1,896.7271922054916,1864.7271922054915) translate(194.8888888888889 21.333333333333336)"/><use xlink:href="#V" transform="matrix(1,0,0,1,896.7271922054916,1864.7271922054915) translate(24.111111111111086 53.333333333333336)"/><use xlink:href="#n" transform="matrix(1,0,0,1,896.7271922054916,1864.7271922054915) translate(157.07407407407408 53.333333333333336)"/><path d="M1011.73 1460.23v143.1" stroke="#000" fill="none"/><path d="M1012.23 1460.24h-1v-.5h1zM1011.73 1618.1l-4.64-14.26h9.26z"/><path d="M1011.73 1619.73l-5.33-16.4h10.65zm-3.95-15.4l3.95 12.16 3.94-12.16z"/><path d="M1011.73 1700.23v143.1" stroke="#000" fill="none"/><path d="M1012.23 1700.24h-1v-.5h1zM1011.73 1858.1l-4.64-14.26h9.26z"/><path d="M1011.73 1859.73l-5.33-16.4h10.65zm-3.95-15.4l3.95 12.16 3.94-12.16z"/><path d="M1501.73 669.73c0-5.53 4.47-10 10-10h300c5.52 0 10 4.47 10 10v60c0 5.52-4.48 10-10 10h-300c-5.53 0-10-4.48-10-10z" stroke="#000" stroke-opacity="0" stroke-width="2" fill="#de5f85"/><use xlink:href="#W" transform="matrix(1,0,0,1,1506.7271922054915,664.7271922054916) translate(48.44444444444443 41.020833333333336)"/><use xlink:href="#r" transform="matrix(1,0,0,1,1506.7271922054915,664.7271922054916) translate(101.77777777777777 41.020833333333336)"/><use xlink:href="#s" transform="matrix(1,0,0,1,1506.7271922054915,664.7271922054916) translate(199.40740740740742 41.020833333333336)"/><path d="M1391.73 879.73h540v120h-540z" stroke="#000" stroke-opacity="0" stroke-width="2" fill="#ccc"/><path d="M1411.73 909.73c0-5.53 4.47-10 10-10h180c5.52 0 10 4.47 10 10v60c0 5.52-4.48 10-10 10h-180c-5.53 0-10-4.48-10-10z" stroke="#000" stroke-opacity="0" stroke-width="2" fill="#de5f85"/><use xlink:href="#X" transform="matrix(1,0,0,1,1416.7271922054915,904.7271922054916) translate(3.555555555555557 21.333333333333336)"/><use xlink:href="#I" transform="matrix(1,0,0,1,1416.7271922054915,904.7271922054916) translate(83.4074074074074 21.333333333333336)"/><use xlink:href="#D" transform="matrix(1,0,0,1,1416.7271922054915,904.7271922054916) translate(25.444444444444443 53.333333333333336)"/><path d="M1671.73 909.73c0-5.53 4.47-10 10-10h220c5.52 0 10 4.47 10 10v60c0 5.52-4.48 10-10 10h-220c-5.53 0-10-4.48-10-10z" stroke="#000" stroke-opacity="0" stroke-width="2" fill="#de5f85"/><use xlink:href="#Y" transform="matrix(1,0,0,1,1676.7271922054917,904.7271922054916) translate(2.1481481481481524 21.333333333333336)"/><use xlink:href="#Z" transform="matrix(1,0,0,1,1676.7271922054917,904.7271922054916) translate(44.962962962962976 21.333333333333336)"/><use xlink:href="#K" transform="matrix(1,0,0,1,1676.7271922054917,904.7271922054916) translate(124.81481481481482 21.333333333333336)"/><use xlink:href="#D" transform="matrix(1,0,0,1,1676.7271922054917,904.7271922054916) translate(45.44444444444444 53.333333333333336)"/><path d="M1661.73 740.23v123.1" stroke="#000" fill="none"/><path d="M1662.23 740.24h-1v-.5h1zM1661.73 878.1l-4.64-14.26h9.26z"/><path d="M1661.73 879.73l-5.33-16.4h10.65zm-3.95-15.4l3.95 12.16 3.94-12.16z"/><path d="M1271.73 500.23v79.5h390v63.6" stroke="#000" fill="none"/><path d="M1272.23 500.24h-1v-.5h1zM1661.73 658.1l-4.64-14.26h9.26z"/><path d="M1661.73 659.73l-5.33-16.4h10.65zm-3.95-15.4l3.95 12.16 3.94-12.16z"/><path d="M1451.73 1869.73c0-5.53 4.47-10 10-10h100c5.52 0 10 4.47 10 10v60c0 5.52-4.48 10-10 10h-100c-5.53 0-10-4.48-10-10z" stroke="#000" stroke-opacity="0" stroke-width="2" fill="#ba8500"/><use xlink:href="#aa" transform="matrix(1,0,0,1,1456.7271922054915,1864.7271922054915) translate(17.222222222222214 41.020833333333336)"/><path d="M1671.73 1149.73c0-5.53 4.47-10 10-10h220c5.52 0 10 4.47 10 10v60c0 5.52-4.48 10-10 10h-220c-5.53 0-10-4.48-10-10z" stroke="#000" stroke-opacity="0" stroke-width="2" fill="#834187"/><use xlink:href="#S" transform="matrix(1,0,0,1,1676.7271922054917,1144.7271922054915) translate(23.370370370370367 21.333333333333336)"/><use xlink:href="#s" transform="matrix(1,0,0,1,1676.7271922054917,1144.7271922054915) translate(83.92592592592592 53.333333333333336)"/><path d="M1511.73 980.23v863.1" stroke="#000" fill="none"/><path d="M1512.23 980.24h-1v-.5h1zM1511.73 1858.1l-4.64-14.26h9.26z"/><path d="M1511.73 1859.73l-5.33-16.4h10.65zm-3.95-15.4l3.95 12.16 3.94-12.16z"/><path d="M1791.73 980.23v143.1" stroke="#000" fill="none"/><path d="M1792.23 980.24h-1v-.5h1zM1791.73 1138.1l-4.64-14.26h9.26z"/><path d="M1791.73 1139.73l-5.33-16.4h10.65zm-3.95-15.4l3.95 12.16 3.94-12.16z"/><path d="M1591.73 1869.73c0-5.53 4.47-10 10-10h180c5.52 0 10 4.47 10 10v60c0 5.52-4.48 10-10 10h-180c-5.53 0-10-4.48-10-10z" stroke="#000" stroke-opacity="0" stroke-width="2" fill="#ef8d22"/><use xlink:href="#ab" transform="matrix(1,0,0,1,1596.7271922054915,1864.7271922054915) translate(3.8888888888888857 21.333333333333336)"/><use xlink:href="#n" transform="matrix(1,0,0,1,1596.7271922054915,1864.7271922054915) translate(70.59259259259258 53.333333333333336)"/><path d="M1811.73 1869.73c0-5.53 4.47-10 10-10h120c5.52 0 10 4.47 10 10v60c0 5.52-4.48 10-10 10h-120c-5.53 0-10-4.48-10-10z" stroke="#000" stroke-opacity="0" stroke-width="2" fill="#ef8d22"/><use xlink:href="#ac" transform="matrix(1,0,0,1,1816.7271922054913,1864.7271922054915) translate(8.851851851851848 21.333333333333336)"/><use xlink:href="#n" transform="matrix(1,0,0,1,1816.7271922054913,1864.7271922054915) translate(40.59259259259259 53.333333333333336)"/><path d="M1791.73 1220.23v319.5h-100v303.6" stroke="#000" fill="none"/><path d="M1792.23 1220.24h-1v-.5h1zM1691.73 1858.1l-4.64-14.26h9.26z"/><path d="M1691.73 1859.73l-5.33-16.4h10.65zm-3.95-15.4l3.95 12.16 3.94-12.16z"/><path d="M1791.73 1220.23v319.5h90v303.6" stroke="#000" fill="none"/><path d="M1792.23 1220.24h-1v-.5h1zM1881.73 1858.1l-4.64-14.26h9.26z"/><path d="M1881.73 1859.73l-5.33-16.4h10.65zm-3.95-15.4l3.95 12.16 3.94-12.16z"/><path d="M2071.73 669.73c0-5.53 4.47-10 10-10h300c5.52 0 10 4.47 10 10v60c0 5.52-4.48 10-10 10h-300c-5.53 0-10-4.48-10-10z" stroke="#000" stroke-opacity="0" stroke-width="2" fill="#0c7cba"/><use xlink:href="#ad" transform="matrix(1,0,0,1,2076.7271922054915,664.7271922054916) translate(63.999999999999986 41.020833333333336)"/><use xlink:href="#r" transform="matrix(1,0,0,1,2076.7271922054915,664.7271922054916) translate(86.22222222222221 41.020833333333336)"/><use xlink:href="#s" transform="matrix(1,0,0,1,2076.7271922054915,664.7271922054916) translate(183.85185185185185 41.020833333333336)"/><path d="M2191.73 1149.73c0-5.53 4.47-10 10-10h240c5.52 0 10 4.47 10 10v60c0 5.52-4.48 10-10 10h-240c-5.53 0-10-4.48-10-10z" stroke="#000" stroke-opacity="0" stroke-width="2" fill="#3aa6dd"/><g><use xlink:href="#y" transform="matrix(1,0,0,1,2196.7271922054915,1144.7271922054915) translate(9.592592592592581 41.020833333333336)"/><use xlink:href="#z" transform="matrix(1,0,0,1,2196.7271922054915,1144.7271922054915) translate(127.96296296296295 41.020833333333336)"/><use xlink:href="#A" transform="matrix(1,0,0,1,2196.7271922054915,1144.7271922054915) translate(206.33333333333334 41.020833333333336)"/></g><path d="M1940.73 1149.73c0-5.53 4.47-10 10-10h202c5.52 0 10 4.47 10 10v60c0 5.52-4.48 10-10 10h-202c-5.53 0-10-4.48-10-10z" stroke="#000" stroke-opacity="0" stroke-width="2" fill="#3aa6dd"/><g><use xlink:href="#B" transform="matrix(1,0,0,1,1945.726841308131,1144.7271922054915) translate(5.8703703703703525 41.020833333333336)"/><use xlink:href="#z" transform="matrix(1,0,0,1,1945.726841308131,1144.7271922054915) translate(94.68518518518518 41.020833333333336)"/><use xlink:href="#A" transform="matrix(1,0,0,1,1945.726841308131,1144.7271922054915) translate(173.05555555555557 41.020833333333336)"/></g><path d="M2071.73 1359.73h460v120h-460z" stroke="#000" stroke-opacity="0" stroke-width="2" fill="#ccc"/><path d="M2091.73 1389.73c0-5.53 4.47-10 10-10h180c5.52 0 10 4.47 10 10v60c0 5.52-4.48 10-10 10h-180c-5.53 0-10-4.48-10-10z" stroke="#000" stroke-opacity="0" stroke-width="2" fill="#062274"/><g><use xlink:href="#ae" transform="matrix(1,0,0,1,2096.7271922054915,1384.7271922054915) translate(38.8888888888889 21.333333333333336)"/><use xlink:href="#D" transform="matrix(1,0,0,1,2096.7271922054915,1384.7271922054915) translate(25.444444444444443 53.333333333333336)"/></g><path d="M2311.73 1389.73c0-5.53 4.47-10 10-10h180c5.52 0 10 4.47 10 10v60c0 5.52-4.48 10-10 10h-180c-5.53 0-10-4.48-10-10z" stroke="#000" stroke-opacity="0" stroke-width="2" fill="#062274"/><g><use xlink:href="#F" transform="matrix(1,0,0,1,2316.7271922054915,1384.7271922054915) translate(17.481481481481495 21.333333333333336)"/><use xlink:href="#af" transform="matrix(1,0,0,1,2316.7271922054915,1384.7271922054915) translate(60.29629629629632 21.333333333333336)"/><use xlink:href="#D" transform="matrix(1,0,0,1,2316.7271922054915,1384.7271922054915) translate(25.444444444444443 53.333333333333336)"/></g><path d="M2271.73 1869.73c0-5.53 4.47-10 10-10h260c5.52 0 10 4.47 10 10v60c0 5.52-4.48 10-10 10h-260c-5.53 0-10-4.48-10-10z" stroke="#000" stroke-opacity="0" stroke-width="2" fill="#834187"/><g><use xlink:href="#ag" transform="matrix(1,0,0,1,2276.7271922054915,1864.7271922054915) translate(8.592592592592581 41.020833333333336)"/><use xlink:href="#s" transform="matrix(1,0,0,1,2276.7271922054915,1864.7271922054915) translate(199.25925925925927 41.020833333333336)"/></g><path d="M2131.73 1869.73c0-5.53 4.47-10 10-10h100c5.52 0 10 4.47 10 10v60c0 5.52-4.48 10-10 10h-100c-5.53 0-10-4.48-10-10z" stroke="#000" stroke-opacity="0" stroke-width="2" fill="#ba8500"/><g><use xlink:href="#ah" transform="matrix(1,0,0,1,2136.7271922054915,1864.7271922054915) translate(21.740740740740733 41.020833333333336)"/></g><path d="M2191.73 1460.23v383.1" stroke="#000" fill="none"/><path d="M2192.23 1460.24h-1v-.5h1zM2191.73 1858.1l-4.64-14.26h9.26z"/><path d="M2191.73 1859.73l-5.33-16.4h10.65zm-3.95-15.4l3.95 12.16 3.94-12.16z"/><path d="M1991.73 1869.73c0-5.53 4.47-10 10-10h100c5.52 0 10 4.47 10 10v60c0 5.52-4.48 10-10 10h-100c-5.53 0-10-4.48-10-10z" stroke="#000" stroke-opacity="0" stroke-width="2" fill="#ba8500"/><g><use xlink:href="#E" transform="matrix(1,0,0,1,1996.7271922054915,1864.7271922054915) translate(20.999999999999993 41.020833333333336)"/></g><path d="M2051.73 1220.23v623.1" stroke="#000" fill="none"/><path d="M2052.23 1220.24h-1v-.5h1zM2051.73 1858.1l-4.64-14.26h9.26z"/><path d="M2051.73 1859.73l-5.33-16.4h10.65zm-3.95-15.4l3.95 12.16 3.94-12.16z"/><path d="M2321.73 1220.23v79.5h-130v63.6" stroke="#000" fill="none"/><path d="M2322.23 1220.24h-1v-.5h1zM2191.73 1378.1l-4.64-14.26h9.26z"/><path d="M2191.73 1379.73l-5.33-16.4h10.65zm-3.95-15.4l3.95 12.16 3.94-12.16z"/><path d="M2321.73 1220.23v79.5h90v63.6" stroke="#000" fill="none"/><path d="M2322.23 1220.24h-1v-.5h1zM2411.73 1378.1l-4.64-14.26h9.26z"/><path d="M2411.73 1379.73l-5.33-16.4h10.65zm-3.95-15.4l3.95 12.16 3.94-12.16z"/><path d="M1271.73 500.23v79.5h960v63.6" stroke="#000" fill="none"/><path d="M1272.23 500.24h-1v-.5h1zM2231.73 658.1l-4.64-14.26h9.26z"/><path d="M2231.73 659.73l-5.33-16.4h10.65zm-3.95-15.4l3.95 12.16 3.94-12.16z"/><path d="M2231.73 740.23v199.5h-180v183.6" stroke="#000" fill="none"/><path d="M2232.23 740.24h-1v-.5h1zM2051.73 1138.1l-4.64-14.26h9.26z"/><path d="M2051.73 1139.73l-5.33-16.4h10.65zm-3.95-15.4l3.95 12.16 3.94-12.16z"/><path d="M2231.73 740.23v199.5h90v183.6" stroke="#000" fill="none"/><path d="M2232.23 740.24h-1v-.5h1zM2321.73 1138.1l-4.64-14.26h9.26z"/><path d="M2321.73 1139.73l-5.33-16.4h10.65zm-3.95-15.4l3.95 12.16 3.94-12.16z"/><path d="M2411.73 1460.23v383.1" stroke="#000" fill="none"/><path d="M2412.23 1460.24h-1v-.5h1zM2411.73 1858.1l-4.64-14.26h9.26z"/><path d="M2411.73 1859.73l-5.33-16.4h10.65zm-3.95-15.4l3.95 12.16 3.94-12.16z"/><defs><path fill="#062274" d="M24 0v-248h52v208h133V0H24" id="ai"/><path fill="#062274" d="M185-48c-13 30-37 53-82 52C43 2 14-33 14-96s30-98 90-98c62 0 83 45 84 108H66c0 31 8 55 39 56 18 0 30-7 34-22zm-45-69c5-46-57-63-70-21-2 6-4 13-4 21h74" id="aj"/><path fill="#062274" d="M128 0H69L1-190h53L99-40l48-150h52" id="ak"/><path fill="#062274" d="M135-194c87-1 58 113 63 194h-50c-7-57 23-157-34-157-59 0-34 97-39 157H25l-1-190h47c2 12-1 28 3 38 12-26 28-41 61-42" id="al"/><path fill="#062274" d="M62-158H24l-5-90h48" id="am"/><path fill="#062274" d="M137-138c1-29-70-34-71-4 15 46 118 7 119 86 1 83-164 76-172 9l43-7c4 19 20 25 44 25 33 8 57-30 24-41C81-84 22-81 20-136c-2-80 154-74 161-7" id="an"/><g id="a"><use transform="matrix(0.07407407407407408,0,0,0.07407407407407408,0,0)" xlink:href="#ai"/><use transform="matrix(0.07407407407407408,0,0,0.07407407407407408,16.222222222222225,0)" xlink:href="#aj"/><use transform="matrix(0.07407407407407408,0,0,0.07407407407407408,31.03703703703704,0)" xlink:href="#ak"/><use transform="matrix(0.07407407407407408,0,0,0.07407407407407408,45.851851851851855,0)" xlink:href="#aj"/><use transform="matrix(0.07407407407407408,0,0,0.07407407407407408,60.66666666666667,0)" xlink:href="#al"/><use transform="matrix(0.07407407407407408,0,0,0.07407407407407408,76.8888888888889,0)" xlink:href="#aj"/><use transform="matrix(0.07407407407407408,0,0,0.07407407407407408,91.70370370370371,0)" xlink:href="#am"/><use transform="matrix(0.07407407407407408,0,0,0.07407407407407408,98.00000000000001,0)" xlink:href="#an"/></g><path fill="#062274" d="M136-208V0H84v-208H4v-40h212v40h-80" id="ao"/><path fill="#062274" d="M115-3C79 11 28 4 28-45v-112H4v-33h27l15-45h31v45h36v33H77v99c-1 23 16 31 38 25v30" id="ap"/><g id="b"><use transform="matrix(0.07407407407407408,0,0,0.07407407407407408,0,0)" xlink:href="#ao"/><use transform="matrix(0.07407407407407408,0,0,0.07407407407407408,14.222222222222225,0)" xlink:href="#aj"/><use transform="matrix(0.07407407407407408,0,0,0.07407407407407408,29.03703703703704,0)" xlink:href="#an"/><use transform="matrix(0.07407407407407408,0,0,0.07407407407407408,43.85185185185187,0)" xlink:href="#ap"/></g><path fill="#fff" d="M136-208V0H84v-208H4v-40h212v40h-80" id="aq"/><path fill="#fff" d="M24 0v-248h195v40H76v63h132v40H76v65h150V0H24" id="ar"/><path fill="#fff" d="M169-182c-1-43-94-46-97-3 18 66 151 10 154 114 3 95-165 93-204 36-6-8-10-19-12-30l50-8c3 46 112 56 116 5-17-69-150-10-154-114-4-87 153-88 188-35 5 8 8 18 10 28" id="as"/><g id="c"><use transform="matrix(0.07407407407407408,0,0,0.07407407407407408,0,0)" xlink:href="#aq"/><use transform="matrix(0.07407407407407408,0,0,0.07407407407407408,16.222222222222225,0)" xlink:href="#ar"/><use transform="matrix(0.07407407407407408,0,0,0.07407407407407408,34,0)" xlink:href="#as"/><use transform="matrix(0.07407407407407408,0,0,0.07407407407407408,51.77777777777778,0)" xlink:href="#aq"/><use transform="matrix(0.07407407407407408,0,0,0.07407407407407408,68,0)" xlink:href="#as"/></g><path fill="#fff" d="M190 0L58-211 59 0H30v-248h39L202-35l-2-213h31V0h-41" id="at"/><path fill="#fff" d="M84 4C-5 8 30-112 23-190h32v120c0 31 7 50 39 49 72-2 45-101 50-169h31l1 190h-30c-1-10 1-25-2-33-11 22-28 36-60 37" id="au"/><path fill="#fff" d="M210-169c-67 3-38 105-44 169h-31v-121c0-29-5-50-35-48C34-165 62-65 56 0H25l-1-190h30c1 10-1 24 2 32 10-44 99-50 107 0 11-21 27-35 58-36 85-2 47 119 55 194h-31v-121c0-29-5-49-35-48" id="av"/><path fill="#fff" d="M100-194c63 0 86 42 84 106H49c0 40 14 67 53 68 26 1 43-12 49-29l28 8c-11 28-37 45-77 45C44 4 14-33 15-96c1-61 26-98 85-98zm52 81c6-60-76-77-97-28-3 7-6 17-6 28h103" id="aw"/><path fill="#fff" d="M114-163C36-179 61-72 57 0H25l-1-190h30c1 12-1 29 2 39 6-27 23-49 58-41v29" id="ax"/><path fill="#fff" d="M24-231v-30h32v30H24zM24 0v-190h32V0H24" id="ay"/><path fill="#fff" d="M96-169c-40 0-48 33-48 73s9 75 48 75c24 0 41-14 43-38l32 2c-6 37-31 61-74 61-59 0-76-41-82-99-10-93 101-131 147-64 4 7 5 14 7 22l-32 3c-4-21-16-35-41-35" id="az"/><path fill="#fff" d="M141-36C126-15 110 5 73 4 37 3 15-17 15-53c-1-64 63-63 125-63 3-35-9-54-41-54-24 1-41 7-42 31l-33-3c5-37 33-52 76-52 45 0 72 20 72 64v82c-1 20 7 32 28 27v20c-31 9-61-2-59-35zM48-53c0 20 12 33 32 33 41-3 63-29 60-74-43 2-92-5-92 41" id="aA"/><path fill="#fff" d="M24 0v-261h32V0H24" id="aB"/><g id="d"><use transform="matrix(0.07407407407407408,0,0,0.07407407407407408,0,0)" xlink:href="#at"/><use transform="matrix(0.07407407407407408,0,0,0.07407407407407408,19.185185185185187,0)" xlink:href="#au"/><use transform="matrix(0.07407407407407408,0,0,0.07407407407407408,34,0)" xlink:href="#av"/><use transform="matrix(0.07407407407407408,0,0,0.07407407407407408,56.14814814814815,0)" xlink:href="#aw"/><use transform="matrix(0.07407407407407408,0,0,0.07407407407407408,70.96296296296296,0)" xlink:href="#ax"/><use transform="matrix(0.07407407407407408,0,0,0.07407407407407408,79.77777777777777,0)" xlink:href="#ay"/><use transform="matrix(0.07407407407407408,0,0,0.07407407407407408,85.62962962962962,0)" xlink:href="#az"/><use transform="matrix(0.07407407407407408,0,0,0.07407407407407408,98.96296296296296,0)" xlink:href="#aA"/><use transform="matrix(0.07407407407407408,0,0,0.07407407407407408,113.77777777777777,0)" xlink:href="#aB"/></g><path fill="#fff" d="M30-248c118-7 216 8 213 122C240-48 200 0 122 0H30v-248zM63-27c89 8 146-16 146-99s-60-101-146-95v194" id="aC"/><path fill="#fff" d="M59-47c-2 24 18 29 38 22v24C64 9 27 4 27-40v-127H5v-23h24l9-43h21v43h35v23H59v120" id="aD"/><g id="e"><use transform="matrix(0.07407407407407408,0,0,0.07407407407407408,0,0)" xlink:href="#aC"/><use transform="matrix(0.07407407407407408,0,0,0.07407407407407408,19.185185185185187,0)" xlink:href="#aA"/><use transform="matrix(0.07407407407407408,0,0,0.07407407407407408,34,0)" xlink:href="#aD"/><use transform="matrix(0.07407407407407408,0,0,0.07407407407407408,41.407407407407405,0)" xlink:href="#aA"/></g><path fill="#fff" d="M212-179c-10-28-35-45-73-45-59 0-87 40-87 99 0 60 29 101 89 101 43 0 62-24 78-52l27 14C228-24 195 4 139 4 59 4 22-46 18-125c-6-104 99-153 187-111 19 9 31 26 39 46" id="aE"/><path fill="#fff" d="M177-190C167-65 218 103 67 71c-23-6-38-20-44-43l32-5c15 47 100 32 89-28v-30C133-14 115 1 83 1 29 1 15-40 15-95c0-56 16-97 71-98 29-1 48 16 59 35 1-10 0-23 2-32h30zM94-22c36 0 50-32 50-73 0-42-14-75-50-75-39 0-46 34-46 75s6 73 46 73" id="aF"/><path fill="#fff" d="M100-194c62-1 85 37 85 99 1 63-27 99-86 99S16-35 15-95c0-66 28-99 85-99zM99-20c44 1 53-31 53-75 0-43-8-75-51-75s-53 32-53 75 10 74 51 75" id="aG"/><g id="f"><use transform="matrix(0.07407407407407408,0,0,0.07407407407407408,0,0)" xlink:href="#aE"/><use transform="matrix(0.07407407407407408,0,0,0.07407407407407408,19.185185185185187,0)" xlink:href="#aA"/><use transform="matrix(0.07407407407407408,0,0,0.07407407407407408,34,0)" xlink:href="#aD"/><use transform="matrix(0.07407407407407408,0,0,0.07407407407407408,41.407407407407405,0)" xlink:href="#aw"/><use transform="matrix(0.07407407407407408,0,0,0.07407407407407408,56.22222222222222,0)" xlink:href="#aF"/><use transform="matrix(0.07407407407407408,0,0,0.07407407407407408,71.03703703703704,0)" xlink:href="#aG"/><use transform="matrix(0.07407407407407408,0,0,0.07407407407407408,85.85185185185185,0)" xlink:href="#ax"/><use transform="matrix(0.07407407407407408,0,0,0.07407407407407408,94.66666666666666,0)" xlink:href="#ay"/><use transform="matrix(0.07407407407407408,0,0,0.07407407407407408,100.5185185185185,0)" xlink:href="#az"/><use transform="matrix(0.07407407407407408,0,0,0.07407407407407408,113.85185185185185,0)" xlink:href="#aA"/><use transform="matrix(0.07407407407407408,0,0,0.07407407407407408,128.66666666666666,0)" xlink:href="#aB"/></g><path fill="#fff" d="M117-194c89-4 53 116 60 194h-32v-121c0-31-8-49-39-48C34-167 62-67 57 0H25l-1-190h30c1 10-1 24 2 32 11-22 29-35 61-36" id="aH"/><path fill="#fff" d="M179-190L93 31C79 59 56 82 12 73V49c39 6 53-20 64-50L1-190h34L92-34l54-156h33" id="aI"/><g id="g"><use transform="matrix(0.07407407407407408,0,0,0.07407407407407408,0,0)" xlink:href="#aE"/><use transform="matrix(0.07407407407407408,0,0,0.07407407407407408,19.185185185185187,0)" xlink:href="#aG"/><use transform="matrix(0.07407407407407408,0,0,0.07407407407407408,34,0)" xlink:href="#aH"/><use transform="matrix(0.07407407407407408,0,0,0.07407407407407408,48.81481481481481,0)" xlink:href="#aD"/><use transform="matrix(0.07407407407407408,0,0,0.07407407407407408,56.22222222222223,0)" xlink:href="#ay"/><use transform="matrix(0.07407407407407408,0,0,0.07407407407407408,62.07407407407408,0)" xlink:href="#aH"/><use transform="matrix(0.07407407407407408,0,0,0.07407407407407408,76.8888888888889,0)" xlink:href="#aF"/><use transform="matrix(0.07407407407407408,0,0,0.07407407407407408,91.70370370370371,0)" xlink:href="#aw"/><use transform="matrix(0.07407407407407408,0,0,0.07407407407407408,106.51851851851853,0)" xlink:href="#aH"/><use transform="matrix(0.07407407407407408,0,0,0.07407407407407408,121.33333333333334,0)" xlink:href="#az"/><use transform="matrix(0.07407407407407408,0,0,0.07407407407407408,134.66666666666669,0)" xlink:href="#aI"/></g><path fill="#fff" d="M127-220V0H93v-220H8v-28h204v28h-85" id="aJ"/><path fill="#fff" d="M115-194c53 0 69 39 70 98 0 66-23 100-70 100C84 3 66-7 56-30L54 0H23l1-261h32v101c10-23 28-34 59-34zm-8 174c40 0 45-34 45-75 0-40-5-75-45-74-42 0-51 32-51 76 0 43 10 73 51 73" id="aK"/><path fill="#fff" d="M135-143c-3-34-86-38-87 0 15 53 115 12 119 90S17 21 10-45l28-5c4 36 97 45 98 0-10-56-113-15-118-90-4-57 82-63 122-42 12 7 21 19 24 35" id="aL"/><g id="h"><use transform="matrix(0.07407407407407408,0,0,0.07407407407407408,0,0)" xlink:href="#aJ"/><use transform="matrix(0.07407407407407408,0,0,0.07407407407407408,13.259259259259261,0)" xlink:href="#aA"/><use transform="matrix(0.07407407407407408,0,0,0.07407407407407408,28.074074074074076,0)" xlink:href="#aK"/><use transform="matrix(0.07407407407407408,0,0,0.07407407407407408,42.88888888888889,0)" xlink:href="#aB"/><use transform="matrix(0.07407407407407408,0,0,0.07407407407407408,48.74074074074075,0)" xlink:href="#aw"/><use transform="matrix(0.07407407407407408,0,0,0.07407407407407408,63.555555555555564,0)" xlink:href="#aL"/></g><g id="i"><use transform="matrix(0.07407407407407408,0,0,0.07407407407407408,0,0)" xlink:href="#aJ"/><use transform="matrix(0.07407407407407408,0,0,0.07407407407407408,13.259259259259261,0)" xlink:href="#aw"/><use transform="matrix(0.07407407407407408,0,0,0.07407407407407408,28.074074074074076,0)" xlink:href="#aL"/><use transform="matrix(0.07407407407407408,0,0,0.07407407407407408,41.40740740740741,0)" xlink:href="#aD"/><use transform="matrix(0.07407407407407408,0,0,0.07407407407407408,48.814814814814824,0)" xlink:href="#aL"/></g><g id="j"><use transform="matrix(0.07407407407407408,0,0,0.07407407407407408,0,0)" xlink:href="#aG"/><use transform="matrix(0.07407407407407408,0,0,0.07407407407407408,14.814814814814817,0)" xlink:href="#aH"/></g><path fill="#fff" d="M33 0v-248h34V0H33" id="aM"/><path fill="#fff" d="M85-194c31 0 48 13 60 33l-1-100h32l1 261h-30c-2-10 0-23-3-31C134-8 116 4 85 4 32 4 16-35 15-94c0-66 23-100 70-100zm9 24c-40 0-46 34-46 75 0 40 6 74 45 74 42 0 51-32 51-76 0-42-9-74-50-73" id="aN"/><path fill="#fff" d="M115-194c55 1 70 41 70 98S169 2 115 4C84 4 66-9 55-30l1 105H24l-1-265h31l2 30c10-21 28-34 59-34zm-8 174c40 0 45-34 45-75s-6-73-45-74c-42 0-51 32-51 76 0 43 10 73 51 73" id="aO"/><g id="k"><use transform="matrix(0.07407407407407408,0,0,0.07407407407407408,0,0)" xlink:href="#aM"/><use transform="matrix(0.07407407407407408,0,0,0.07407407407407408,7.407407407407408,0)" xlink:href="#aH"/><use transform="matrix(0.07407407407407408,0,0,0.07407407407407408,22.222222222222225,0)" xlink:href="#aN"/><use transform="matrix(0.07407407407407408,0,0,0.07407407407407408,37.03703703703704,0)" xlink:href="#aw"/><use transform="matrix(0.07407407407407408,0,0,0.07407407407407408,51.85185185185186,0)" xlink:href="#aO"/><use transform="matrix(0.07407407407407408,0,0,0.07407407407407408,66.66666666666667,0)" xlink:href="#aw"/><use transform="matrix(0.07407407407407408,0,0,0.07407407407407408,81.4814814814815,0)" xlink:href="#aH"/><use transform="matrix(0.07407407407407408,0,0,0.07407407407407408,96.2962962962963,0)" xlink:href="#aN"/><use transform="matrix(0.07407407407407408,0,0,0.07407407407407408,111.11111111111111,0)" xlink:href="#aA"/><use transform="matrix(0.07407407407407408,0,0,0.07407407407407408,125.92592592592592,0)" xlink:href="#aH"/><use transform="matrix(0.07407407407407408,0,0,0.07407407407407408,140.74074074074073,0)" xlink:href="#az"/><use transform="matrix(0.07407407407407408,0,0,0.07407407407407408,154.07407407407405,0)" xlink:href="#aw"/></g><path fill="#fff" d="M30-248c87 1 191-15 191 75 0 78-77 80-158 76V0H30v-248zm33 125c57 0 124 11 124-50 0-59-68-47-124-48v98" id="aP"/><path fill="#fff" d="M47-170H22l-4-78h33" id="aQ"/><g id="l"><use transform="matrix(0.07407407407407408,0,0,0.07407407407407408,0,0)" xlink:href="#aP"/><use transform="matrix(0.07407407407407408,0,0,0.07407407407407408,17.77777777777778,0)" xlink:href="#aw"/><use transform="matrix(0.07407407407407408,0,0,0.07407407407407408,32.592592592592595,0)" xlink:href="#aA"/><use transform="matrix(0.07407407407407408,0,0,0.07407407407407408,47.40740740740741,0)" xlink:href="#ax"/><use transform="matrix(0.07407407407407408,0,0,0.07407407407407408,56.22222222222223,0)" xlink:href="#aL"/><use transform="matrix(0.07407407407407408,0,0,0.07407407407407408,69.55555555555557,0)" xlink:href="#aG"/><use transform="matrix(0.07407407407407408,0,0,0.07407407407407408,84.37037037037038,0)" xlink:href="#aH"/><use transform="matrix(0.07407407407407408,0,0,0.07407407407407408,99.1851851851852,0)" xlink:href="#aQ"/><use transform="matrix(0.07407407407407408,0,0,0.07407407407407408,104.22222222222224,0)" xlink:href="#aL"/></g><path fill="#fff" d="M106-169C34-169 62-67 57 0H25v-261h32l-1 103c12-21 28-36 61-36 89 0 53 116 60 194h-32v-121c2-32-8-49-39-48" id="aR"/><path fill="#fff" d="M16-82v-28h88v28H16" id="aS"/><path fill="#fff" d="M145-31C134-9 116 4 85 4 32 4 16-35 15-94c0-59 17-99 70-100 32-1 48 14 60 33 0-11-1-24 2-32h30l-1 268h-32zM93-21c41 0 51-33 51-76s-8-73-50-73c-40 0-46 35-46 75s5 74 45 74" id="aT"/><g id="m"><use transform="matrix(0.07407407407407408,0,0,0.07407407407407408,0,0)" xlink:href="#aE"/><use transform="matrix(0.07407407407407408,0,0,0.07407407407407408,19.185185185185187,0)" xlink:href="#aR"/><use transform="matrix(0.07407407407407408,0,0,0.07407407407407408,34,0)" xlink:href="#ay"/><use transform="matrix(0.07407407407407408,0,0,0.07407407407407408,39.851851851851855,0)" xlink:href="#aS"/><use transform="matrix(0.07407407407407408,0,0,0.07407407407407408,48.66666666666667,0)" xlink:href="#aL"/><use transform="matrix(0.07407407407407408,0,0,0.07407407407407408,62.00000000000001,0)" xlink:href="#aT"/><use transform="matrix(0.07407407407407408,0,0,0.07407407407407408,76.81481481481482,0)" xlink:href="#au"/><use transform="matrix(0.07407407407407408,0,0,0.07407407407407408,91.62962962962965,0)" xlink:href="#aA"/><use transform="matrix(0.07407407407407408,0,0,0.07407407407407408,106.44444444444446,0)" xlink:href="#ax"/><use transform="matrix(0.07407407407407408,0,0,0.07407407407407408,115.25925925925928,0)" xlink:href="#aw"/></g><g id="n"><use transform="matrix(0.07407407407407408,0,0,0.07407407407407408,0,0)" xlink:href="#aJ"/><use transform="matrix(0.07407407407407408,0,0,0.07407407407407408,13.259259259259261,0)" xlink:href="#aw"/><use transform="matrix(0.07407407407407408,0,0,0.07407407407407408,28.074074074074076,0)" xlink:href="#aL"/><use transform="matrix(0.07407407407407408,0,0,0.07407407407407408,41.40740740740741,0)" xlink:href="#aD"/></g><path fill="#fff" d="M63-220v92h138v28H63V0H30v-248h175v28H63" id="aU"/><g id="o"><use transform="matrix(0.07407407407407408,0,0,0.07407407407407408,0,0)" xlink:href="#aU"/><use transform="matrix(0.07407407407407408,0,0,0.07407407407407408,16.222222222222225,0)" xlink:href="#ay"/><use transform="matrix(0.07407407407407408,0,0,0.07407407407407408,22.074074074074076,0)" xlink:href="#aL"/><use transform="matrix(0.07407407407407408,0,0,0.07407407407407408,35.40740740740741,0)" xlink:href="#aR"/><use transform="matrix(0.07407407407407408,0,0,0.07407407407407408,50.22222222222223,0)" xlink:href="#aw"/><use transform="matrix(0.07407407407407408,0,0,0.07407407407407408,65.03703703703704,0)" xlink:href="#ax"/><use transform="matrix(0.07407407407407408,0,0,0.07407407407407408,73.85185185185185,0)" xlink:href="#aQ"/><use transform="matrix(0.07407407407407408,0,0,0.07407407407407408,78.88888888888889,0)" xlink:href="#aL"/></g><path fill="#fff" d="M30 0v-248h187v28H63v79h144v27H63v87h162V0H30" id="aV"/><path fill="#fff" d="M141 0L90-78 38 0H4l68-98-65-92h35l48 74 47-74h35l-64 92 68 98h-35" id="aW"/><g id="p"><use transform="matrix(0.07407407407407408,0,0,0.07407407407407408,0,0)" xlink:href="#aV"/><use transform="matrix(0.07407407407407408,0,0,0.07407407407407408,17.77777777777778,0)" xlink:href="#aW"/><use transform="matrix(0.07407407407407408,0,0,0.07407407407407408,31.111111111111114,0)" xlink:href="#aA"/><use transform="matrix(0.07407407407407408,0,0,0.07407407407407408,45.92592592592593,0)" xlink:href="#az"/><use transform="matrix(0.07407407407407408,0,0,0.07407407407407408,59.25925925925927,0)" xlink:href="#aD"/></g><path fill="#fff" d="M101-251c82-7 93 87 43 132L82-64C71-53 59-42 53-27h129V0H18c2-99 128-94 128-182 0-28-16-43-45-43s-46 15-49 41l-32-3c6-41 34-60 81-64" id="aX"/><use transform="matrix(0.07407407407407408,0,0,0.07407407407407408,0,0)" xlink:href="#aX" id="q"/><path fill="#fff" d="M185-189c-5-48-123-54-124 2 14 75 158 14 163 119 3 78-121 87-175 55-17-10-28-26-33-46l33-7c5 56 141 63 141-1 0-78-155-14-162-118-5-82 145-84 179-34 5 7 8 16 11 25" id="aY"/><g id="r"><use transform="matrix(0.07407407407407408,0,0,0.07407407407407408,0,0)" xlink:href="#aY"/><use transform="matrix(0.07407407407407408,0,0,0.07407407407407408,17.77777777777778,0)" xlink:href="#aA"/><use transform="matrix(0.07407407407407408,0,0,0.07407407407407408,32.592592592592595,0)" xlink:href="#av"/><use transform="matrix(0.07407407407407408,0,0,0.07407407407407408,54.74074074074075,0)" xlink:href="#aO"/><use transform="matrix(0.07407407407407408,0,0,0.07407407407407408,69.55555555555557,0)" xlink:href="#aB"/><use transform="matrix(0.07407407407407408,0,0,0.07407407407407408,75.40740740740742,0)" xlink:href="#aw"/></g><g id="s"><use transform="matrix(0.07407407407407408,0,0,0.07407407407407408,0,0)" xlink:href="#aJ"/><use transform="matrix(0.07407407407407408,0,0,0.07407407407407408,13.259259259259261,0)" xlink:href="#aw"/><use transform="matrix(0.07407407407407408,0,0,0.07407407407407408,28.074074074074076,0)" xlink:href="#aL"/><use transform="matrix(0.07407407407407408,0,0,0.07407407407407408,41.40740740740741,0)" xlink:href="#aD"/><use transform="matrix(0.07407407407407408,0,0,0.07407407407407408,48.814814814814824,0)" xlink:href="#aL"/></g><g id="t"><use transform="matrix(0.07407407407407408,0,0,0.07407407407407408,0,0)" xlink:href="#aM"/><use transform="matrix(0.07407407407407408,0,0,0.07407407407407408,7.407407407407408,0)" xlink:href="#aH"/><use transform="matrix(0.07407407407407408,0,0,0.07407407407407408,22.222222222222225,0)" xlink:href="#aN"/><use transform="matrix(0.07407407407407408,0,0,0.07407407407407408,37.03703703703704,0)" xlink:href="#aw"/><use transform="matrix(0.07407407407407408,0,0,0.07407407407407408,51.85185185185186,0)" xlink:href="#aO"/><use transform="matrix(0.07407407407407408,0,0,0.07407407407407408,66.66666666666667,0)" xlink:href="#aw"/><use transform="matrix(0.07407407407407408,0,0,0.07407407407407408,81.4814814814815,0)" xlink:href="#aH"/><use transform="matrix(0.07407407407407408,0,0,0.07407407407407408,96.2962962962963,0)" xlink:href="#aN"/><use transform="matrix(0.07407407407407408,0,0,0.07407407407407408,111.11111111111111,0)" xlink:href="#aw"/><use transform="matrix(0.07407407407407408,0,0,0.07407407407407408,125.92592592592592,0)" xlink:href="#aH"/><use transform="matrix(0.07407407407407408,0,0,0.07407407407407408,140.74074074074073,0)" xlink:href="#aD"/></g><path fill="#fff" d="M240 0l2-218c-23 76-54 145-80 218h-23L58-218 59 0H30v-248h44l77 211c21-75 51-140 76-211h43V0h-30" id="aZ"/><g id="u"><use transform="matrix(0.07407407407407408,0,0,0.07407407407407408,0,0)" xlink:href="#aZ"/><use transform="matrix(0.07407407407407408,0,0,0.07407407407407408,22.148148148148152,0)" xlink:href="#aw"/><use transform="matrix(0.07407407407407408,0,0,0.07407407407407408,36.96296296296297,0)" xlink:href="#aA"/><use transform="matrix(0.07407407407407408,0,0,0.07407407407407408,51.777777777777786,0)" xlink:href="#aH"/><use transform="matrix(0.07407407407407408,0,0,0.07407407407407408,66.59259259259261,0)" xlink:href="#aL"/></g><g id="v"><use transform="matrix(0.07407407407407408,0,0,0.07407407407407408,0,0)" xlink:href="#aC"/><use transform="matrix(0.07407407407407408,0,0,0.07407407407407408,19.185185185185187,0)" xlink:href="#aw"/><use transform="matrix(0.07407407407407408,0,0,0.07407407407407408,34,0)" xlink:href="#aO"/><use transform="matrix(0.07407407407407408,0,0,0.07407407407407408,48.81481481481481,0)" xlink:href="#aw"/><use transform="matrix(0.07407407407407408,0,0,0.07407407407407408,63.629629629629626,0)" xlink:href="#aH"/><use transform="matrix(0.07407407407407408,0,0,0.07407407407407408,78.44444444444446,0)" xlink:href="#aN"/><use transform="matrix(0.07407407407407408,0,0,0.07407407407407408,93.25925925925927,0)" xlink:href="#aw"/><use transform="matrix(0.07407407407407408,0,0,0.07407407407407408,108.07407407407408,0)" xlink:href="#aH"/><use transform="matrix(0.07407407407407408,0,0,0.07407407407407408,122.88888888888889,0)" xlink:href="#aD"/></g><g id="w"><use transform="matrix(0.07407407407407408,0,0,0.07407407407407408,0,0)" xlink:href="#aP"/><use transform="matrix(0.07407407407407408,0,0,0.07407407407407408,17.77777777777778,0)" xlink:href="#aA"/><use transform="matrix(0.07407407407407408,0,0,0.07407407407407408,32.592592592592595,0)" xlink:href="#ay"/><use transform="matrix(0.07407407407407408,0,0,0.07407407407407408,38.44444444444445,0)" xlink:href="#ax"/><use transform="matrix(0.07407407407407408,0,0,0.07407407407407408,47.25925925925927,0)" xlink:href="#aw"/><use transform="matrix(0.07407407407407408,0,0,0.07407407407407408,62.07407407407408,0)" xlink:href="#aN"/><use transform="matrix(0.07407407407407408,0,0,0.07407407407407408,76.8888888888889,0)" xlink:href="#aS"/><use transform="matrix(0.07407407407407408,0,0,0.07407407407407408,85.70370370370374,0)" xlink:href="#aL"/><use transform="matrix(0.07407407407407408,0,0,0.07407407407407408,99.03703703703707,0)" xlink:href="#aA"/><use transform="matrix(0.07407407407407408,0,0,0.07407407407407408,113.85185185185189,0)" xlink:href="#av"/><use transform="matrix(0.07407407407407408,0,0,0.07407407407407408,136.00000000000003,0)" xlink:href="#aO"/><use transform="matrix(0.07407407407407408,0,0,0.07407407407407408,150.81481481481484,0)" xlink:href="#aB"/><use transform="matrix(0.07407407407407408,0,0,0.07407407407407408,156.66666666666669,0)" xlink:href="#aw"/></g><g id="x"><use transform="matrix(0.07407407407407408,0,0,0.07407407407407408,0,0)" xlink:href="#aJ"/><use transform="matrix(0.07407407407407408,0,0,0.07407407407407408,14.740740740740744,0)" xlink:href="#aS"/><use transform="matrix(0.07407407407407408,0,0,0.07407407407407408,23.555555555555557,0)" xlink:href="#aD"/><use transform="matrix(0.07407407407407408,0,0,0.07407407407407408,30.962962962962965,0)" xlink:href="#aw"/><use transform="matrix(0.07407407407407408,0,0,0.07407407407407408,45.777777777777786,0)" xlink:href="#aL"/><use transform="matrix(0.07407407407407408,0,0,0.07407407407407408,59.11111111111112,0)" xlink:href="#aD"/></g><path fill="#fff" d="M232-93c-1 65-40 97-104 97C67 4 28-28 28-90v-158h33c8 89-33 224 67 224 102 0 64-133 71-224h33v155" id="ba"/><path fill="#fff" d="M143 0L79-87 56-68V0H24v-261h32v163l83-92h37l-77 82L181 0h-38" id="bb"/><path fill="#fff" d="M206 0h-36l-40-164L89 0H53L-1-190h32L70-26l43-164h34l41 164 42-164h31" id="bc"/><g id="y"><use transform="matrix(0.07407407407407408,0,0,0.07407407407407408,0,0)" xlink:href="#ba"/><use transform="matrix(0.07407407407407408,0,0,0.07407407407407408,19.185185185185187,0)" xlink:href="#aH"/><use transform="matrix(0.07407407407407408,0,0,0.07407407407407408,34,0)" xlink:href="#bb"/><use transform="matrix(0.07407407407407408,0,0,0.07407407407407408,47.33333333333334,0)" xlink:href="#aH"/><use transform="matrix(0.07407407407407408,0,0,0.07407407407407408,62.14814814814816,0)" xlink:href="#aG"/><use transform="matrix(0.07407407407407408,0,0,0.07407407407407408,76.96296296296296,0)" xlink:href="#bc"/><use transform="matrix(0.07407407407407408,0,0,0.07407407407407408,96.14814814814814,0)" xlink:href="#aH"/></g><g id="z"><use transform="matrix(0.07407407407407408,0,0,0.07407407407407408,0,0)" xlink:href="#aL"/><use transform="matrix(0.07407407407407408,0,0,0.07407407407407408,13.333333333333336,0)" xlink:href="#ay"/><use transform="matrix(0.07407407407407408,0,0,0.07407407407407408,19.18518518518519,0)" xlink:href="#aF"/><use transform="matrix(0.07407407407407408,0,0,0.07407407407407408,34.00000000000001,0)" xlink:href="#av"/><use transform="matrix(0.07407407407407408,0,0,0.07407407407407408,56.14814814814815,0)" xlink:href="#aA"/></g><path fill="#fff" d="M87 75C49 33 22-17 22-94c0-76 28-126 65-167h31c-38 41-64 92-64 168S80 34 118 75H87" id="bd"/><path fill="#fff" d="M162-168c12 23 27 46 26 82 0 57-30 90-86 90-59 0-87-37-87-96 0-65 38-98 102-98h100v23zM101-20c73 3 59-110 32-147-56-3-84 22-84 75-1 43 14 70 52 72" id="be"/><path fill="#fff" d="M33-261c38 41 65 92 65 168S71 34 33 75H2C39 34 66-17 66-93S39-220 2-261h31" id="bf"/><g id="A"><use transform="matrix(0.07407407407407408,0,0,0.07407407407407408,0,0)" xlink:href="#bd"/><use transform="matrix(0.07407407407407408,0,0,0.07407407407407408,8.814814814814817,0)" xlink:href="#be"/><use transform="matrix(0.07407407407407408,0,0,0.07407407407407408,25.259259259259263,0)" xlink:href="#bf"/></g><path fill="#fff" d="M194 0L95-120 63-95V0H30v-248h33v124l119-124h40L117-140 236 0h-42" id="bg"/><g id="B"><use transform="matrix(0.07407407407407408,0,0,0.07407407407407408,0,0)" xlink:href="#bg"/><use transform="matrix(0.07407407407407408,0,0,0.07407407407407408,17.77777777777778,0)" xlink:href="#aH"/><use transform="matrix(0.07407407407407408,0,0,0.07407407407407408,32.592592592592595,0)" xlink:href="#aG"/><use transform="matrix(0.07407407407407408,0,0,0.07407407407407408,47.40740740740741,0)" xlink:href="#bc"/><use transform="matrix(0.07407407407407408,0,0,0.07407407407407408,66.5925925925926,0)" xlink:href="#aH"/></g><g id="C"><use transform="matrix(0.07407407407407408,0,0,0.07407407407407408,0,0)" xlink:href="#at"/><use transform="matrix(0.07407407407407408,0,0,0.07407407407407408,19.185185185185187,0)" xlink:href="#aG"/><use transform="matrix(0.07407407407407408,0,0,0.07407407407407408,34,0)" xlink:href="#ax"/><use transform="matrix(0.07407407407407408,0,0,0.07407407407407408,42.814814814814824,0)" xlink:href="#av"/><use transform="matrix(0.07407407407407408,0,0,0.07407407407407408,64.96296296296296,0)" xlink:href="#aA"/><use transform="matrix(0.07407407407407408,0,0,0.07407407407407408,79.77777777777777,0)" xlink:href="#aB"/><use transform="matrix(0.07407407407407408,0,0,0.07407407407407408,85.62962962962962,0)" xlink:href="#ay"/><use transform="matrix(0.07407407407407408,0,0,0.07407407407407408,91.48148148148147,0)" xlink:href="#aD"/><use transform="matrix(0.07407407407407408,0,0,0.07407407407407408,98.88888888888887,0)" xlink:href="#aI"/></g><path fill="#fff" d="M205 0l-28-72H64L36 0H1l101-248h38L239 0h-34zm-38-99l-47-123c-12 45-31 82-46 123h93" id="bh"/><g id="D"><use transform="matrix(0.07407407407407408,0,0,0.07407407407407408,0,0)" xlink:href="#bh"/><use transform="matrix(0.07407407407407408,0,0,0.07407407407407408,17.77777777777778,0)" xlink:href="#aL"/><use transform="matrix(0.07407407407407408,0,0,0.07407407407407408,31.111111111111114,0)" xlink:href="#aL"/><use transform="matrix(0.07407407407407408,0,0,0.07407407407407408,44.44444444444445,0)" xlink:href="#au"/><use transform="matrix(0.07407407407407408,0,0,0.07407407407407408,59.25925925925927,0)" xlink:href="#av"/><use transform="matrix(0.07407407407407408,0,0,0.07407407407407408,81.40740740740742,0)" xlink:href="#aO"/><use transform="matrix(0.07407407407407408,0,0,0.07407407407407408,96.22222222222223,0)" xlink:href="#aD"/><use transform="matrix(0.07407407407407408,0,0,0.07407407407407408,103.62962962962963,0)" xlink:href="#ay"/><use transform="matrix(0.07407407407407408,0,0,0.07407407407407408,109.48148148148148,0)" xlink:href="#aG"/><use transform="matrix(0.07407407407407408,0,0,0.07407407407407408,124.29629629629632,0)" xlink:href="#aH"/></g><path fill="#fff" d="M209 0H11v-25l151-195H24v-28h176v25L50-27h159V0" id="bi"/><g id="E"><use transform="matrix(0.07407407407407408,0,0,0.07407407407407408,0,0)" xlink:href="#bi"/><use transform="matrix(0.07407407407407408,0,0,0.07407407407407408,16.222222222222225,0)" xlink:href="#aS"/><use transform="matrix(0.07407407407407408,0,0,0.07407407407407408,25.03703703703704,0)" xlink:href="#aD"/><use transform="matrix(0.07407407407407408,0,0,0.07407407407407408,32.44444444444445,0)" xlink:href="#aw"/><use transform="matrix(0.07407407407407408,0,0,0.07407407407407408,47.25925925925927,0)" xlink:href="#aL"/><use transform="matrix(0.07407407407407408,0,0,0.07407407407407408,60.5925925925926,0)" xlink:href="#aD"/></g><path fill="#fff" d="M175 0L67-191c6 58 2 128 3 191H24v-248h59L193-55c-6-58-2-129-3-193h46V0h-61" id="bj"/><path fill="#fff" d="M110-194c64 0 96 36 96 99 0 64-35 99-97 99-61 0-95-36-95-99 0-62 34-99 96-99zm-1 164c35 0 45-28 45-65 0-40-10-65-43-65-34 0-45 26-45 65 0 36 10 65 43 65" id="bk"/><g id="F"><use transform="matrix(0.07407407407407408,0,0,0.07407407407407408,0,0)" xlink:href="#bj"/><use transform="matrix(0.07407407407407408,0,0,0.07407407407407408,19.185185185185187,0)" xlink:href="#bk"/></g><g id="G"><use transform="matrix(0.07407407407407408,0,0,0.07407407407407408,0,0)" xlink:href="#at"/><use transform="matrix(0.07407407407407408,0,0,0.07407407407407408,19.185185185185187,0)" xlink:href="#aG"/><use transform="matrix(0.07407407407407408,0,0,0.07407407407407408,34,0)" xlink:href="#ax"/><use transform="matrix(0.07407407407407408,0,0,0.07407407407407408,42.814814814814824,0)" xlink:href="#av"/><use transform="matrix(0.07407407407407408,0,0,0.07407407407407408,64.96296296296296,0)" xlink:href="#aA"/><use transform="matrix(0.07407407407407408,0,0,0.07407407407407408,79.77777777777777,0)" xlink:href="#aB"/><use transform="matrix(0.07407407407407408,0,0,0.07407407407407408,85.62962962962962,0)" xlink:href="#ay"/><use transform="matrix(0.07407407407407408,0,0,0.07407407407407408,91.48148148148147,0)" xlink:href="#aD"/><use transform="matrix(0.07407407407407408,0,0,0.07407407407407408,98.88888888888887,0)" xlink:href="#aI"/></g><path fill="#fff" d="M133-34C117-15 103 5 69 4 32 3 11-16 11-54c-1-60 55-63 116-61 1-26-3-47-28-47-18 1-26 9-28 27l-52-2c7-38 36-58 82-57s74 22 75 68l1 82c-1 14 12 18 25 15v27c-30 8-71 5-69-32zm-48 3c29 0 43-24 42-57-32 0-66-3-65 30 0 17 8 27 23 27" id="bl"/><path fill="#fff" d="M220-157c-53 9-28 100-34 157h-49v-107c1-27-5-49-29-50C55-147 81-57 75 0H25l-1-190h47c2 12-1 28 3 38 10-53 101-56 108 0 13-22 24-43 59-42 82 1 51 116 57 194h-49v-107c-1-25-5-48-29-50" id="bm"/><path fill="#fff" d="M185-48c-13 30-37 53-82 52C43 2 14-33 14-96s30-98 90-98c62 0 83 45 84 108H66c0 31 8 55 39 56 18 0 30-7 34-22zm-45-69c5-46-57-63-70-21-2 6-4 13-4 21h74" id="bn"/><g id="H"><use transform="matrix(0.07407407407407408,0,0,0.07407407407407408,0,0)" xlink:href="#as"/><use transform="matrix(0.07407407407407408,0,0,0.07407407407407408,17.77777777777778,0)" xlink:href="#bl"/><use transform="matrix(0.07407407407407408,0,0,0.07407407407407408,32.592592592592595,0)" xlink:href="#bm"/><use transform="matrix(0.07407407407407408,0,0,0.07407407407407408,56.296296296296305,0)" xlink:href="#bn"/></g><path fill="#fff" d="M137 0h-34L2-248h35l83 218 83-218h36" id="bo"/><g id="I"><use transform="matrix(0.07407407407407408,0,0,0.07407407407407408,0,0)" xlink:href="#bo"/><use transform="matrix(0.07407407407407408,0,0,0.07407407407407408,15.777777777777779,0)" xlink:href="#aA"/><use transform="matrix(0.07407407407407408,0,0,0.07407407407407408,30.592592592592595,0)" xlink:href="#ax"/><use transform="matrix(0.07407407407407408,0,0,0.07407407407407408,39.40740740740741,0)" xlink:href="#ay"/><use transform="matrix(0.07407407407407408,0,0,0.07407407407407408,45.25925925925927,0)" xlink:href="#aA"/><use transform="matrix(0.07407407407407408,0,0,0.07407407407407408,60.07407407407408,0)" xlink:href="#aH"/><use transform="matrix(0.07407407407407408,0,0,0.07407407407407408,74.8888888888889,0)" xlink:href="#az"/><use transform="matrix(0.07407407407407408,0,0,0.07407407407407408,88.22222222222223,0)" xlink:href="#aw"/></g><path fill="#fff" d="M24-248c120-7 223 5 221 122C244-46 201 0 124 0H24v-248zM76-40c74 7 117-18 117-86 0-67-45-88-117-82v168" id="bp"/><path fill="#fff" d="M25-224v-37h50v37H25zM25 0v-190h50V0H25" id="bq"/><path fill="#fff" d="M121-226c-27-7-43 5-38 36h38v33H83V0H34v-157H6v-33h28c-9-59 32-81 87-68v32" id="br"/><path fill="#fff" d="M135-150c-39-12-60 13-60 57V0H25l-1-190h47c2 13-1 29 3 40 6-28 27-53 61-41v41" id="bs"/><path fill="#fff" d="M135-194c87-1 58 113 63 194h-50c-7-57 23-157-34-157-59 0-34 97-39 157H25l-1-190h47c2 12-1 28 3 38 12-26 28-41 61-42" id="bt"/><path fill="#fff" d="M115-3C79 11 28 4 28-45v-112H4v-33h27l15-45h31v45h36v33H77v99c-1 23 16 31 38 25v30" id="bu"/><g id="J"><use transform="matrix(0.07407407407407408,0,0,0.07407407407407408,0,0)" xlink:href="#bp"/><use transform="matrix(0.07407407407407408,0,0,0.07407407407407408,19.185185185185187,0)" xlink:href="#bq"/><use transform="matrix(0.07407407407407408,0,0,0.07407407407407408,26.592592592592595,0)" xlink:href="#br"/><use transform="matrix(0.07407407407407408,0,0,0.07407407407407408,35.40740740740741,0)" xlink:href="#br"/><use transform="matrix(0.07407407407407408,0,0,0.07407407407407408,44.22222222222223,0)" xlink:href="#bn"/><use transform="matrix(0.07407407407407408,0,0,0.07407407407407408,59.037037037037045,0)" xlink:href="#bs"/><use transform="matrix(0.07407407407407408,0,0,0.07407407407407408,69.40740740740742,0)" xlink:href="#bn"/><use transform="matrix(0.07407407407407408,0,0,0.07407407407407408,84.22222222222223,0)" xlink:href="#bt"/><use transform="matrix(0.07407407407407408,0,0,0.07407407407407408,100.44444444444446,0)" xlink:href="#bu"/></g><g id="K"><use transform="matrix(0.07407407407407408,0,0,0.07407407407407408,0,0)" xlink:href="#bo"/><use transform="matrix(0.07407407407407408,0,0,0.07407407407407408,15.777777777777779,0)" xlink:href="#aA"/><use transform="matrix(0.07407407407407408,0,0,0.07407407407407408,30.592592592592595,0)" xlink:href="#ax"/><use transform="matrix(0.07407407407407408,0,0,0.07407407407407408,39.40740740740741,0)" xlink:href="#ay"/><use transform="matrix(0.07407407407407408,0,0,0.07407407407407408,45.25925925925927,0)" xlink:href="#aA"/><use transform="matrix(0.07407407407407408,0,0,0.07407407407407408,60.07407407407408,0)" xlink:href="#aH"/><use transform="matrix(0.07407407407407408,0,0,0.07407407407407408,74.8888888888889,0)" xlink:href="#az"/><use transform="matrix(0.07407407407407408,0,0,0.07407407407407408,88.22222222222223,0)" xlink:href="#aw"/></g><path fill="#fff" d="M108 0H70L1-190h34L89-25l56-165h34" id="bv"/><g id="L"><use transform="matrix(0.07407407407407408,0,0,0.07407407407407408,0,0)" xlink:href="#aP"/><use transform="matrix(0.07407407407407408,0,0,0.07407407407407408,17.77777777777778,0)" xlink:href="#aG"/><use transform="matrix(0.07407407407407408,0,0,0.07407407407407408,32.592592592592595,0)" xlink:href="#aG"/><use transform="matrix(0.07407407407407408,0,0,0.07407407407407408,47.40740740740741,0)" xlink:href="#aB"/><use transform="matrix(0.07407407407407408,0,0,0.07407407407407408,53.25925925925927,0)" xlink:href="#aw"/><use transform="matrix(0.07407407407407408,0,0,0.07407407407407408,68.07407407407408,0)" xlink:href="#aN"/><use transform="matrix(0.07407407407407408,0,0,0.07407407407407408,82.88888888888889,0)" xlink:href="#aS"/><use transform="matrix(0.07407407407407408,0,0,0.07407407407407408,91.7037037037037,0)" xlink:href="#bv"/><use transform="matrix(0.07407407407407408,0,0,0.07407407407407408,105.03703703703704,0)" xlink:href="#aA"/><use transform="matrix(0.07407407407407408,0,0,0.07407407407407408,119.85185185185185,0)" xlink:href="#ax"/><use transform="matrix(0.07407407407407408,0,0,0.07407407407407408,128.66666666666666,0)" xlink:href="#ay"/><use transform="matrix(0.07407407407407408,0,0,0.07407407407407408,134.5185185185185,0)" xlink:href="#aA"/><use transform="matrix(0.07407407407407408,0,0,0.07407407407407408,149.33333333333331,0)" xlink:href="#aH"/><use transform="matrix(0.07407407407407408,0,0,0.07407407407407408,164.14814814814812,0)" xlink:href="#az"/><use transform="matrix(0.07407407407407408,0,0,0.07407407407407408,177.48148148148147,0)" xlink:href="#aw"/></g><g id="M"><use transform="matrix(0.07407407407407408,0,0,0.07407407407407408,0,0)" xlink:href="#aJ"/><use transform="matrix(0.07407407407407408,0,0,0.07407407407407408,14.740740740740744,0)" xlink:href="#aS"/><use transform="matrix(0.07407407407407408,0,0,0.07407407407407408,23.555555555555557,0)" xlink:href="#aO"/><use transform="matrix(0.07407407407407408,0,0,0.07407407407407408,38.37037037037038,0)" xlink:href="#ax"/><use transform="matrix(0.07407407407407408,0,0,0.07407407407407408,47.1851851851852,0)" xlink:href="#aG"/><use transform="matrix(0.07407407407407408,0,0,0.07407407407407408,62.000000000000014,0)" xlink:href="#az"/><use transform="matrix(0.07407407407407408,0,0,0.07407407407407408,75.33333333333334,0)" xlink:href="#aw"/><use transform="matrix(0.07407407407407408,0,0,0.07407407407407408,90.14814814814817,0)" xlink:href="#aN"/><use transform="matrix(0.07407407407407408,0,0,0.07407407407407408,104.96296296296296,0)" xlink:href="#au"/><use transform="matrix(0.07407407407407408,0,0,0.07407407407407408,119.77777777777777,0)" xlink:href="#ax"/><use transform="matrix(0.07407407407407408,0,0,0.07407407407407408,128.59259259259258,0)" xlink:href="#aw"/></g><g id="N"><use transform="matrix(0.07407407407407408,0,0,0.07407407407407408,0,0)" xlink:href="#ba"/><use transform="matrix(0.07407407407407408,0,0,0.07407407407407408,19.185185185185187,0)" xlink:href="#aH"/><use transform="matrix(0.07407407407407408,0,0,0.07407407407407408,34,0)" xlink:href="#aO"/><use transform="matrix(0.07407407407407408,0,0,0.07407407407407408,48.81481481481481,0)" xlink:href="#aG"/><use transform="matrix(0.07407407407407408,0,0,0.07407407407407408,63.629629629629626,0)" xlink:href="#aG"/><use transform="matrix(0.07407407407407408,0,0,0.07407407407407408,78.44444444444446,0)" xlink:href="#aB"/><use transform="matrix(0.07407407407407408,0,0,0.07407407407407408,84.2962962962963,0)" xlink:href="#aw"/><use transform="matrix(0.07407407407407408,0,0,0.07407407407407408,99.11111111111111,0)" xlink:href="#aN"/><use transform="matrix(0.07407407407407408,0,0,0.07407407407407408,113.92592592592592,0)" xlink:href="#aS"/><use transform="matrix(0.07407407407407408,0,0,0.07407407407407408,122.74074074074073,0)" xlink:href="#bv"/><use transform="matrix(0.07407407407407408,0,0,0.07407407407407408,136.07407407407408,0)" xlink:href="#aA"/><use transform="matrix(0.07407407407407408,0,0,0.07407407407407408,150.88888888888889,0)" xlink:href="#ax"/><use transform="matrix(0.07407407407407408,0,0,0.07407407407407408,159.7037037037037,0)" xlink:href="#ay"/><use transform="matrix(0.07407407407407408,0,0,0.07407407407407408,165.55555555555554,0)" xlink:href="#aA"/><use transform="matrix(0.07407407407407408,0,0,0.07407407407407408,180.37037037037035,0)" xlink:href="#aH"/><use transform="matrix(0.07407407407407408,0,0,0.07407407407407408,195.1851851851852,0)" xlink:href="#az"/><use transform="matrix(0.07407407407407408,0,0,0.07407407407407408,208.5185185185185,0)" xlink:href="#aw"/></g><g id="O"><use transform="matrix(0.07407407407407408,0,0,0.07407407407407408,0,0)" xlink:href="#aJ"/><use transform="matrix(0.07407407407407408,0,0,0.07407407407407408,14.740740740740744,0)" xlink:href="#aS"/><use transform="matrix(0.07407407407407408,0,0,0.07407407407407408,23.555555555555557,0)" xlink:href="#aO"/><use transform="matrix(0.07407407407407408,0,0,0.07407407407407408,38.37037037037038,0)" xlink:href="#ax"/><use transform="matrix(0.07407407407407408,0,0,0.07407407407407408,47.1851851851852,0)" xlink:href="#aG"/><use transform="matrix(0.07407407407407408,0,0,0.07407407407407408,62.000000000000014,0)" xlink:href="#az"/><use transform="matrix(0.07407407407407408,0,0,0.07407407407407408,75.33333333333334,0)" xlink:href="#aw"/><use transform="matrix(0.07407407407407408,0,0,0.07407407407407408,90.14814814814817,0)" xlink:href="#aN"/><use transform="matrix(0.07407407407407408,0,0,0.07407407407407408,104.96296296296296,0)" xlink:href="#au"/><use transform="matrix(0.07407407407407408,0,0,0.07407407407407408,119.77777777777777,0)" xlink:href="#ax"/><use transform="matrix(0.07407407407407408,0,0,0.07407407407407408,128.59259259259258,0)" xlink:href="#aw"/></g><path fill="#fff" d="M266 0h-40l-56-210L115 0H75L2-248h35L96-30l15-64 43-154h32l59 218 59-218h35" id="bw"/><g id="P"><use transform="matrix(0.07407407407407408,0,0,0.07407407407407408,0,0)" xlink:href="#bd"/><use transform="matrix(0.07407407407407408,0,0,0.07407407407407408,8.814814814814817,0)" xlink:href="#bw"/><use transform="matrix(0.07407407407407408,0,0,0.07407407407407408,33.40740740740741,0)" xlink:href="#aw"/><use transform="matrix(0.07407407407407408,0,0,0.07407407407407408,48.22222222222223,0)" xlink:href="#aB"/><use transform="matrix(0.07407407407407408,0,0,0.07407407407407408,54.07407407407408,0)" xlink:href="#az"/><use transform="matrix(0.07407407407407408,0,0,0.07407407407407408,67.40740740740742,0)" xlink:href="#aR"/><use transform="matrix(0.07407407407407408,0,0,0.07407407407407408,82.22222222222223,0)" xlink:href="#bf"/></g><path fill="#48127b" d="M24 0v-248h52v208h133V0H24" id="bx"/><path fill="#48127b" d="M185-48c-13 30-37 53-82 52C43 2 14-33 14-96s30-98 90-98c62 0 83 45 84 108H66c0 31 8 55 39 56 18 0 30-7 34-22zm-45-69c5-46-57-63-70-21-2 6-4 13-4 21h74" id="by"/><path fill="#48127b" d="M128 0H69L1-190h53L99-40l48-150h52" id="bz"/><path fill="#48127b" d="M135-194c87-1 58 113 63 194h-50c-7-57 23-157-34-157-59 0-34 97-39 157H25l-1-190h47c2 12-1 28 3 38 12-26 28-41 61-42" id="bA"/><path fill="#48127b" d="M62-158H24l-5-90h48" id="bB"/><path fill="#48127b" d="M137-138c1-29-70-34-71-4 15 46 118 7 119 86 1 83-164 76-172 9l43-7c4 19 20 25 44 25 33 8 57-30 24-41C81-84 22-81 20-136c-2-80 154-74 161-7" id="bC"/><g id="Q"><use transform="matrix(0.07407407407407408,0,0,0.07407407407407408,0,0)" xlink:href="#bx"/><use transform="matrix(0.07407407407407408,0,0,0.07407407407407408,16.222222222222225,0)" xlink:href="#by"/><use transform="matrix(0.07407407407407408,0,0,0.07407407407407408,31.03703703703704,0)" xlink:href="#bz"/><use transform="matrix(0.07407407407407408,0,0,0.07407407407407408,45.851851851851855,0)" xlink:href="#by"/><use transform="matrix(0.07407407407407408,0,0,0.07407407407407408,60.66666666666667,0)" xlink:href="#bA"/><use transform="matrix(0.07407407407407408,0,0,0.07407407407407408,76.8888888888889,0)" xlink:href="#by"/><use transform="matrix(0.07407407407407408,0,0,0.07407407407407408,91.70370370370371,0)" xlink:href="#bB"/><use transform="matrix(0.07407407407407408,0,0,0.07407407407407408,98.00000000000001,0)" xlink:href="#bC"/></g><path fill="#48127b" d="M136-208V0H84v-208H4v-40h212v40h-80" id="bD"/><path fill="#48127b" d="M115-3C79 11 28 4 28-45v-112H4v-33h27l15-45h31v45h36v33H77v99c-1 23 16 31 38 25v30" id="bE"/><g id="R"><use transform="matrix(0.07407407407407408,0,0,0.07407407407407408,0,0)" xlink:href="#bD"/><use transform="matrix(0.07407407407407408,0,0,0.07407407407407408,14.222222222222225,0)" xlink:href="#by"/><use transform="matrix(0.07407407407407408,0,0,0.07407407407407408,29.03703703703704,0)" xlink:href="#bC"/><use transform="matrix(0.07407407407407408,0,0,0.07407407407407408,43.85185185185187,0)" xlink:href="#bE"/></g><g id="S"><use transform="matrix(0.07407407407407408,0,0,0.07407407407407408,0,0)" xlink:href="#at"/><use transform="matrix(0.07407407407407408,0,0,0.07407407407407408,19.185185185185187,0)" xlink:href="#aG"/><use transform="matrix(0.07407407407407408,0,0,0.07407407407407408,34,0)" xlink:href="#aH"/><use transform="matrix(0.07407407407407408,0,0,0.07407407407407408,48.81481481481481,0)" xlink:href="#aS"/><use transform="matrix(0.07407407407407408,0,0,0.07407407407407408,57.62962962962964,0)" xlink:href="#aO"/><use transform="matrix(0.07407407407407408,0,0,0.07407407407407408,72.44444444444446,0)" xlink:href="#aA"/><use transform="matrix(0.07407407407407408,0,0,0.07407407407407408,87.25925925925927,0)" xlink:href="#ax"/><use transform="matrix(0.07407407407407408,0,0,0.07407407407407408,96.07407407407408,0)" xlink:href="#aA"/><use transform="matrix(0.07407407407407408,0,0,0.07407407407407408,110.88888888888889,0)" xlink:href="#av"/><use transform="matrix(0.07407407407407408,0,0,0.07407407407407408,133.03703703703704,0)" xlink:href="#aw"/><use transform="matrix(0.07407407407407408,0,0,0.07407407407407408,147.85185185185185,0)" xlink:href="#aD"/><use transform="matrix(0.07407407407407408,0,0,0.07407407407407408,155.25925925925927,0)" xlink:href="#ax"/><use transform="matrix(0.07407407407407408,0,0,0.07407407407407408,164.07407407407408,0)" xlink:href="#ay"/><use transform="matrix(0.07407407407407408,0,0,0.07407407407407408,169.92592592592592,0)" xlink:href="#az"/></g><g id="T"><use transform="matrix(0.07407407407407408,0,0,0.07407407407407408,0,0)" xlink:href="#aZ"/><use transform="matrix(0.07407407407407408,0,0,0.07407407407407408,22.148148148148152,0)" xlink:href="#aA"/><use transform="matrix(0.07407407407407408,0,0,0.07407407407407408,36.96296296296297,0)" xlink:href="#aH"/><use transform="matrix(0.07407407407407408,0,0,0.07407407407407408,51.777777777777786,0)" xlink:href="#aH"/><use transform="matrix(0.07407407407407408,0,0,0.07407407407407408,66.59259259259261,0)" xlink:href="#aS"/><use transform="matrix(0.07407407407407408,0,0,0.07407407407407408,75.40740740740742,0)" xlink:href="#bw"/><use transform="matrix(0.07407407407407408,0,0,0.07407407407407408,100.51851851851853,0)" xlink:href="#aR"/><use transform="matrix(0.07407407407407408,0,0,0.07407407407407408,115.33333333333334,0)" xlink:href="#ay"/><use transform="matrix(0.07407407407407408,0,0,0.07407407407407408,121.18518518518519,0)" xlink:href="#aD"/><use transform="matrix(0.07407407407407408,0,0,0.07407407407407408,128.5925925925926,0)" xlink:href="#aH"/><use transform="matrix(0.07407407407407408,0,0,0.07407407407407408,143.40740740740742,0)" xlink:href="#aw"/><use transform="matrix(0.07407407407407408,0,0,0.07407407407407408,158.22222222222226,0)" xlink:href="#aI"/></g><use transform="matrix(0.07407407407407408,0,0,0.07407407407407408,0,0)" xlink:href="#ba" id="U"/><g id="V"><use transform="matrix(0.07407407407407408,0,0,0.07407407407407408,0,0)" xlink:href="#bd"/><use transform="matrix(0.07407407407407408,0,0,0.07407407407407408,8.814814814814817,0)" xlink:href="#bw"/><use transform="matrix(0.07407407407407408,0,0,0.07407407407407408,33.92592592592593,0)" xlink:href="#ay"/><use transform="matrix(0.07407407407407408,0,0,0.07407407407407408,39.777777777777786,0)" xlink:href="#aB"/><use transform="matrix(0.07407407407407408,0,0,0.07407407407407408,45.62962962962965,0)" xlink:href="#az"/><use transform="matrix(0.07407407407407408,0,0,0.07407407407407408,58.962962962962976,0)" xlink:href="#aG"/><use transform="matrix(0.07407407407407408,0,0,0.07407407407407408,73.7777777777778,0)" xlink:href="#aW"/><use transform="matrix(0.07407407407407408,0,0,0.07407407407407408,87.11111111111114,0)" xlink:href="#aG"/><use transform="matrix(0.07407407407407408,0,0,0.07407407407407408,101.92592592592595,0)" xlink:href="#aH"/><use transform="matrix(0.07407407407407408,0,0,0.07407407407407408,116.74074074074076,0)" xlink:href="#bf"/></g><path fill="#fff" d="M18-27v-27l151-64-151-65v-27l175 74v36" id="bF"/><path fill="#fff" d="M18-150v-26h174v26H18zm0 90v-26h174v26H18" id="bG"/><path fill="#fff" d="M126-127c33 6 58 20 58 59 0 88-139 92-164 29-3-8-5-16-6-25l32-3c6 27 21 44 54 44 32 0 52-15 52-46 0-38-36-46-79-43v-28c39 1 72-4 72-42 0-27-17-43-46-43-28 0-47 15-49 41l-32-3c6-42 35-63 81-64 48-1 79 21 79 65 0 36-21 52-52 59" id="bH"/><g id="W"><use transform="matrix(0.07407407407407408,0,0,0.07407407407407408,0,0)" xlink:href="#bF"/><use transform="matrix(0.07407407407407408,0,0,0.07407407407407408,15.555555555555557,0)" xlink:href="#bG"/><use transform="matrix(0.07407407407407408,0,0,0.07407407407407408,31.111111111111114,0)" xlink:href="#bH"/></g><path fill="#fff" d="M84 4C32 4 15-41 15-95c0-55 18-99 73-99 29 0 47 12 58 34l2-30h48l-1 265h-49V-32C136-9 114 4 84 4zm21-34c32 0 41-29 41-66 0-36-9-64-40-64-33 0-39 30-40 65 0 43 13 65 39 65" id="bI"/><path fill="#fff" d="M85 4C-2 5 27-109 22-190h50c7 57-23 150 33 157 60-5 35-97 40-157h50l1 190h-47c-2-12 1-28-3-38-12 25-28 42-61 42" id="bJ"/><path fill="#fff" d="M25 0v-261h50V0H25" id="bK"/><g id="X"><use transform="matrix(0.07407407407407408,0,0,0.07407407407407408,0,0)" xlink:href="#ar"/><use transform="matrix(0.07407407407407408,0,0,0.07407407407407408,17.77777777777778,0)" xlink:href="#bI"/><use transform="matrix(0.07407407407407408,0,0,0.07407407407407408,34,0)" xlink:href="#bJ"/><use transform="matrix(0.07407407407407408,0,0,0.07407407407407408,50.22222222222223,0)" xlink:href="#bl"/><use transform="matrix(0.07407407407407408,0,0,0.07407407407407408,65.03703703703704,0)" xlink:href="#bK"/></g><g id="Y"><use transform="matrix(0.07407407407407408,0,0,0.07407407407407408,0,0)" xlink:href="#bj"/><use transform="matrix(0.07407407407407408,0,0,0.07407407407407408,19.185185185185187,0)" xlink:href="#bk"/></g><g id="Z"><use transform="matrix(0.07407407407407408,0,0,0.07407407407407408,0,0)" xlink:href="#ar"/><use transform="matrix(0.07407407407407408,0,0,0.07407407407407408,17.77777777777778,0)" xlink:href="#bI"/><use transform="matrix(0.07407407407407408,0,0,0.07407407407407408,34,0)" xlink:href="#bJ"/><use transform="matrix(0.07407407407407408,0,0,0.07407407407407408,50.22222222222223,0)" xlink:href="#bl"/><use transform="matrix(0.07407407407407408,0,0,0.07407407407407408,65.03703703703704,0)" xlink:href="#bK"/></g><g id="aa"><use transform="matrix(0.07407407407407408,0,0,0.07407407407407408,0,0)" xlink:href="#bh"/><use transform="matrix(0.07407407407407408,0,0,0.07407407407407408,17.77777777777778,0)" xlink:href="#aH"/><use transform="matrix(0.07407407407407408,0,0,0.07407407407407408,32.592592592592595,0)" xlink:href="#aG"/><use transform="matrix(0.07407407407407408,0,0,0.07407407407407408,47.40740740740741,0)" xlink:href="#bv"/><use transform="matrix(0.07407407407407408,0,0,0.07407407407407408,60.74074074074075,0)" xlink:href="#aA"/></g><g id="ab"><use transform="matrix(0.07407407407407408,0,0,0.07407407407407408,0,0)" xlink:href="#bg"/><use transform="matrix(0.07407407407407408,0,0,0.07407407407407408,17.77777777777778,0)" xlink:href="#ax"/><use transform="matrix(0.07407407407407408,0,0,0.07407407407407408,26.592592592592595,0)" xlink:href="#au"/><use transform="matrix(0.07407407407407408,0,0,0.07407407407407408,41.40740740740741,0)" xlink:href="#aL"/><use transform="matrix(0.07407407407407408,0,0,0.07407407407407408,54.74074074074075,0)" xlink:href="#aR"/><use transform="matrix(0.07407407407407408,0,0,0.07407407407407408,69.55555555555557,0)" xlink:href="#bb"/><use transform="matrix(0.07407407407407408,0,0,0.07407407407407408,82.88888888888891,0)" xlink:href="#aA"/><use transform="matrix(0.07407407407407408,0,0,0.07407407407407408,97.70370370370371,0)" xlink:href="#aB"/><use transform="matrix(0.07407407407407408,0,0,0.07407407407407408,103.55555555555557,0)" xlink:href="#aS"/><use transform="matrix(0.07407407407407408,0,0,0.07407407407407408,112.37037037037038,0)" xlink:href="#bw"/><use transform="matrix(0.07407407407407408,0,0,0.07407407407407408,136.51851851851853,0)" xlink:href="#aA"/><use transform="matrix(0.07407407407407408,0,0,0.07407407407407408,151.33333333333334,0)" xlink:href="#aB"/><use transform="matrix(0.07407407407407408,0,0,0.07407407407407408,157.18518518518522,0)" xlink:href="#aB"/><use transform="matrix(0.07407407407407408,0,0,0.07407407407407408,163.03703703703704,0)" xlink:href="#ay"/><use transform="matrix(0.07407407407407408,0,0,0.07407407407407408,168.88888888888889,0)" xlink:href="#aL"/></g><g id="ac"><use transform="matrix(0.07407407407407408,0,0,0.07407407407407408,0,0)" xlink:href="#aU"/><use transform="matrix(0.07407407407407408,0,0,0.07407407407407408,16.222222222222225,0)" xlink:href="#ax"/><use transform="matrix(0.07407407407407408,0,0,0.07407407407407408,25.03703703703704,0)" xlink:href="#ay"/><use transform="matrix(0.07407407407407408,0,0,0.07407407407407408,30.888888888888893,0)" xlink:href="#aw"/><use transform="matrix(0.07407407407407408,0,0,0.07407407407407408,45.70370370370371,0)" xlink:href="#aN"/><use transform="matrix(0.07407407407407408,0,0,0.07407407407407408,60.518518518518526,0)" xlink:href="#av"/><use transform="matrix(0.07407407407407408,0,0,0.07407407407407408,82.66666666666667,0)" xlink:href="#aA"/><use transform="matrix(0.07407407407407408,0,0,0.07407407407407408,97.4814814814815,0)" xlink:href="#aH"/></g><path fill="#fff" d="M27 0v-27h64v-190l-56 39v-29l58-41h29v221h61V0H27" id="bL"/><use transform="matrix(0.07407407407407408,0,0,0.07407407407407408,0,0)" xlink:href="#bL" id="ad"/><g id="ae"><use transform="matrix(0.07407407407407408,0,0,0.07407407407407408,0,0)" xlink:href="#at"/><use transform="matrix(0.07407407407407408,0,0,0.07407407407407408,19.185185185185187,0)" xlink:href="#aG"/><use transform="matrix(0.07407407407407408,0,0,0.07407407407407408,34,0)" xlink:href="#ax"/><use transform="matrix(0.07407407407407408,0,0,0.07407407407407408,42.814814814814824,0)" xlink:href="#av"/><use transform="matrix(0.07407407407407408,0,0,0.07407407407407408,64.96296296296296,0)" xlink:href="#aA"/><use transform="matrix(0.07407407407407408,0,0,0.07407407407407408,79.77777777777777,0)" xlink:href="#aB"/><use transform="matrix(0.07407407407407408,0,0,0.07407407407407408,85.62962962962962,0)" xlink:href="#ay"/><use transform="matrix(0.07407407407407408,0,0,0.07407407407407408,91.48148148148147,0)" xlink:href="#aD"/><use transform="matrix(0.07407407407407408,0,0,0.07407407407407408,98.88888888888887,0)" xlink:href="#aI"/></g><g id="af"><use transform="matrix(0.07407407407407408,0,0,0.07407407407407408,0,0)" xlink:href="#at"/><use transform="matrix(0.07407407407407408,0,0,0.07407407407407408,19.185185185185187,0)" xlink:href="#aG"/><use transform="matrix(0.07407407407407408,0,0,0.07407407407407408,34,0)" xlink:href="#ax"/><use transform="matrix(0.07407407407407408,0,0,0.07407407407407408,42.814814814814824,0)" xlink:href="#av"/><use transform="matrix(0.07407407407407408,0,0,0.07407407407407408,64.96296296296296,0)" xlink:href="#aA"/><use transform="matrix(0.07407407407407408,0,0,0.07407407407407408,79.77777777777777,0)" xlink:href="#aB"/><use transform="matrix(0.07407407407407408,0,0,0.07407407407407408,85.62962962962962,0)" xlink:href="#ay"/><use transform="matrix(0.07407407407407408,0,0,0.07407407407407408,91.48148148148147,0)" xlink:href="#aD"/><use transform="matrix(0.07407407407407408,0,0,0.07407407407407408,98.88888888888887,0)" xlink:href="#aI"/></g><g id="ag"><use transform="matrix(0.07407407407407408,0,0,0.07407407407407408,0,0)" xlink:href="#at"/><use transform="matrix(0.07407407407407408,0,0,0.07407407407407408,19.185185185185187,0)" xlink:href="#aG"/><use transform="matrix(0.07407407407407408,0,0,0.07407407407407408,34,0)" xlink:href="#aH"/><use transform="matrix(0.07407407407407408,0,0,0.07407407407407408,48.81481481481481,0)" xlink:href="#aS"/><use transform="matrix(0.07407407407407408,0,0,0.07407407407407408,57.62962962962964,0)" xlink:href="#aO"/><use transform="matrix(0.07407407407407408,0,0,0.07407407407407408,72.44444444444446,0)" xlink:href="#aA"/><use transform="matrix(0.07407407407407408,0,0,0.07407407407407408,87.25925925925927,0)" xlink:href="#ax"/><use transform="matrix(0.07407407407407408,0,0,0.07407407407407408,96.07407407407408,0)" xlink:href="#aA"/><use transform="matrix(0.07407407407407408,0,0,0.07407407407407408,110.88888888888889,0)" xlink:href="#av"/><use transform="matrix(0.07407407407407408,0,0,0.07407407407407408,133.03703703703704,0)" xlink:href="#aw"/><use transform="matrix(0.07407407407407408,0,0,0.07407407407407408,147.85185185185185,0)" xlink:href="#aD"/><use transform="matrix(0.07407407407407408,0,0,0.07407407407407408,155.25925925925927,0)" xlink:href="#ax"/><use transform="matrix(0.07407407407407408,0,0,0.07407407407407408,164.07407407407408,0)" xlink:href="#ay"/><use transform="matrix(0.07407407407407408,0,0,0.07407407407407408,169.92592592592592,0)" xlink:href="#az"/></g><g id="ah"><use transform="matrix(0.07407407407407408,0,0,0.07407407407407408,0,0)" xlink:href="#aJ"/><use transform="matrix(0.07407407407407408,0,0,0.07407407407407408,14.740740740740744,0)" xlink:href="#aS"/><use transform="matrix(0.07407407407407408,0,0,0.07407407407407408,23.555555555555557,0)" xlink:href="#aD"/><use transform="matrix(0.07407407407407408,0,0,0.07407407407407408,30.962962962962965,0)" xlink:href="#aw"/><use transform="matrix(0.07407407407407408,0,0,0.07407407407407408,45.777777777777786,0)" xlink:href="#aL"/><use transform="matrix(0.07407407407407408,0,0,0.07407407407407408,59.11111111111112,0)" xlink:href="#aD"/></g></defs></g></svg>